<?xml version="1.0" standalone="no"?>
<!DOCTYPE svg PUBLIC "-//W3C//DTD SVG 1.1//EN" "http://www.w3.org/Graphics/SVG/1.1/DTD/svg11.dtd" >
<svg xmlns="http://www.w3.org/2000/svg">
<metadata>
Created by FontForge 20120731 at Wed May 24 16:59:18 2017
 By admin
</metadata>
<defs>
<font id="iconfont" horiz-adv-x="1024" >
  <font-face 
    font-family="iconfont"
    font-weight="500"
    font-stretch="normal"
    units-per-em="1024"
    panose-1="2 0 6 3 0 0 0 0 0 0"
    ascent="896"
    descent="-128"
    x-height="792"
    bbox="-0.6 -212 1206 896.398"
    underline-thickness="0"
    underline-position="0"
    unicode-range="U+0078-E904"
  />
<missing-glyph 
 />
    <glyph glyph-name=".notdef" 
 />
    <glyph glyph-name=".notdef" 
 />
    <glyph glyph-name=".null" horiz-adv-x="0" 
 />
    <glyph glyph-name="nonmarkingreturn" horiz-adv-x="341" 
 />
    <glyph glyph-name="glyph3" unicode="x" horiz-adv-x="1001" 
d="M281 543q-27 -1 -53 -1h-83q-18 0 -36.5 -6t-32.5 -18.5t-23 -32t-9 -45.5v-76h912v41q0 16 -0.5 30t-0.5 18q0 13 -5 29t-17 29.5t-31.5 22.5t-49.5 9h-133v-97h-438v97zM955 310v-52q0 -23 0.5 -52t0.5 -58t-10.5 -47.5t-26 -30t-33 -16t-31.5 -4.5q-14 -1 -29.5 -0.5
t-29.5 0.5h-32l-45 128h-439l-44 -128h-29h-34q-20 0 -45 1q-25 0 -41 9.5t-25.5 23t-13.5 29.5t-4 30v167h911zM163 247q-12 0 -21 -8.5t-9 -21.5t9 -21.5t21 -8.5q13 0 22 8.5t9 21.5t-9 21.5t-22 8.5zM316 123q-8 -26 -14 -48q-5 -19 -10.5 -37t-7.5 -25t-3 -15t1 -14.5
t9.5 -10.5t21.5 -4h37h67h81h80h64h36q23 0 34 12t2 38q-5 13 -9.5 30.5t-9.5 34.5q-5 19 -11 39h-368zM336 498v228q0 11 2.5 23t10 21.5t20.5 15.5t34 6h188q31 0 51.5 -14.5t20.5 -52.5v-227h-327z" />
    <glyph glyph-name="sousuo" unicode="&#x3433;" horiz-adv-x="1000" 
d="M808 54l-73 75q48 76 48 167q0 130 -90.5 222t-218 92t-218 -92t-90.5 -222t90.5 -222t217.5 -92q67 0 128 28l22 -23v0l60 -60q25 -26 62 -26t62.5 26t25.5 63.5t-26 63.5zM262 296.5q0 89.5 62 153t150 63.5t150.5 -63.5t62.5 -153t-62.5 -153t-150.5 -63.5t-150 63.5
t-62 153z" />
    <glyph glyph-name="huiliuquhuodong" unicode="&#x3477;" 
d="M909 -50h-746q-39 0 -66.5 27.5t-27.5 65.5v435q0 39 27.5 66.5t66.5 27.5h62l264 202q-2 8 -2 15q0 26 18 44t44 18t44 -18t18 -44q0 -16 -8 -30l243 -187h63q38 0 65.5 -27.5t27.5 -66.5v-435q0 -38 -27.5 -65.5t-65.5 -27.5zM569 149h125v24h-99v177h-26v-201z
M390 149l22 61h84l23 -61h30l-82 201h-28l-77 -201h28zM204.5 326.5q-8.5 -13.5 -8.5 -28.5q0 -14 7 -25t21 -19q11 -6 39 -12q27 -7 35 -10q13 -5 18.5 -12t5.5 -16.5t-6 -17t-17.5 -12t-26.5 -4.5q-17 0 -30.5 6t-20 15.5t-8.5 24.5l-25 -2q1 -20 11.5 -36t28.5 -24t45 -8
q22 0 39 8t26 22t9 30t-8 28.5t-26 20.5q-12 5 -44 12.5t-40 14.5t-8 18q0 12 11 21t35 9q23 0 35 -10t14 -28l25 1q-1 18 -10 32t-26 21t-39 7q-20 0 -36.5 -6.5t-25 -20zM588 741q-18 -14 -39 -14q-31 0 -50 26l-243 -181h559zM875 173h-122v68h110v24h-110v61h118v24
h-145v-201h149v24zM452 329q5 -17 14 -42l21 -55h-68l22 58q7 19 11 39z" />
    <glyph glyph-name="tianmaojifen" unicode="&#xe65e;" 
d="M512 719q-114 0 -210.5 -56t-153 -153t-56.5 -211t56.5 -210.5t153 -153t210.5 -56.5t211 56.5t153 153t56 210.5t-56 211t-153 153t-211 56zM512 -76q-102 0 -188 50.5t-136.5 136.5t-50.5 188t50.5 188.5t136.5 136.5t188 50t188.5 -50t136.5 -136.5t50 -188.5
t-50 -188t-136.5 -136.5t-188.5 -50.5zM512.5 612q-129.5 0 -221 -91.5t-91.5 -221t91.5 -221t221 -91.5t221 91.5t91.5 221t-91.5 221t-221 91.5zM674 372h-117v-241h-88v241h-118v84h323v-84z" />
    <glyph glyph-name="shuaxin1" unicode="&#xe6b2;" 
d="M702 64q-80 -56 -178 -55q-12 0 -25 1q-2 0 -5.5 0.5t-4.5 1.5q-13 1 -19 2q-1 1 -11 3q-12 3 -19 5l-8 3q-13 4 -21 7q0 1 -4 3q-14 6 -24 11h-1q-38 22 -69 53v1h-1l-18 20q-1 1 -2 2.5t-2 2.5q-66 84 -66 192h70q3 0 4.5 2.5t0.5 4.5l-119 180q-1 3 -4 3t-4 -3
l-119 -180q-2 -2 -0.5 -4.5t4.5 -2.5h71q0 -126 71 -230l0.5 -1t0.5 -2q3 -3 15 -19q0 -1 2 -3.5t3 -3.5q10 -12 23 -26q2 -2 3 -2q40 -41 90 -68l2 -2q13 -7 29 -14q1 -1 3.5 -2t4.5 -1q10 -5 25 -10q10 -3 13 -4q8 -3 23 -6q13 -3 16 -4q1 0 3 -0.5t3 -0.5q5 -1 23 -3
q1 -1 3.5 -1h4.5q22 -3 40 -3q125 0 228 74q17 11 20.5 31t-8 36.5t-31 20t-36.5 -8.5zM928 317q0 125 -71 228q0 1 -0.5 2t-0.5 2q-6 7 -18 23l-1 1l-1 1q-61 75 -149 114q-1 0 -2.5 1t-2.5 1q-12 5 -28 11q-1 0 -3 0.5t-4 1.5t-3 1q-10 3 -26 7q-12 2 -14 3q-1 0 -3 0.5
t-4 0.5q-3 1 -10 2t-9 1q-1 0 -5.5 0.5t-7.5 0.5q-13 2 -31 2h-3h-3h-0.5h-0.5q-126 0 -228 -73q-17 -11 -20.5 -31t8 -36.5t31 -20t36.5 8.5q79 56 176 55q14 0 27 -1q1 0 4 -0.5t4 -0.5q12 -2 21 -4q1 0 10 -2l20 -5q1 -1 3.5 -1.5t3.5 -0.5q12 -5 22 -9q1 0 1.5 -0.5
t1.5 -0.5q67 -29 114 -87h0.5t0.5 -1q69 -85 69 -194h-71q-3 0 -4.5 -3t0.5 -5l119 -180q1 -3 4 -3t4 3l119 180q1 2 -0.5 5t-4.5 3h-70v0z" />
    <glyph glyph-name="shuaxin2" unicode="&#xe6b3;" 
d="M985 405l-248 75l55 49q-51 62 -124 98t-156 36q-99 0 -182.5 -49t-132.5 -132.5t-49 -182t49 -182t132.5 -132.5t182 -49t182 49t132.5 132.5t49 182.5q0 1 -0.5 4.5t-0.5 4.5l109 -38q-7 -122 -71.5 -224t-170.5 -161t-229 -59q-97 0 -184.5 37.5t-150.5 100.5
t-100.5 150.5t-37.5 184t37.5 184t100.5 150.5t150.5 100.5t184.5 37.5q107 0 201.5 -45t160.5 -124l69 61z" />
    <glyph glyph-name="shijian" unicode="&#xe600;" 
d="M512 834h-18v-179q0 -7 5.5 -12.5t12.5 -5.5t12.5 5.5t5.5 12.5v143q108 -5 198 -61t142.5 -148.5t52.5 -201.5q0 -111 -55 -206t-149.5 -150t-206 -55t-206.5 55t-150 150t-55 206q0 82 31 157t89 134q5 5 5 12.5t-5 12.5t-12.5 5t-12.5 -5q-63 -63 -97 -145t-34 -171
q0 -91 35.5 -173.5t95.5 -142.5t142.5 -95.5t173.5 -35.5t173.5 35.5t142.5 95.5t95.5 142.5t35.5 173.5t-35.5 173.5t-95.5 142.5t-142.5 95.5t-173.5 35.5zM550 349q16 16 16 38t-16 38q-9 9 -74.5 55.5t-126.5 88.5l-61 42q165 -241 186 -262q16 -16 38 -16t38 16z" />
    <glyph glyph-name="jifen" unicode="&#xe65a;" 
d="M428 232q0 -37 25 -55.5t63 -18.5q30 0 54 11.5t24 38.5q0 9 -3 16.5t-10.5 13t-14.5 10t-19.5 8.5t-21.5 6t-25 6t-25 7q-26 6 -44 13.5t-37 20t-28.5 32.5t-9.5 47q0 58 45 89.5t105 31.5q68 0 114 -31.5t46 -97.5h-85q-4 61 -79 61q-25 0 -43 -11t-18 -34
q0 -22 19 -31t100 -30q2 0 4 -1q15 -3 25 -6.5t29 -12.5t30.5 -20.5t21 -31.5t9.5 -45q0 -57 -43.5 -92.5t-122.5 -35.5q-72 0 -121.5 36.5t-49.5 105.5h86zM540 476q0 -5 -3.5 -8.5t-8.5 -3.5h-31q-5 0 -8.5 3.5t-3.5 8.5v63q0 6 3.5 9.5t8.5 3.5h31q5 0 8.5 -3.5t3.5 -9.5
v-63zM540 61q0 -5 -3.5 -8.5t-8.5 -3.5h-31q-5 0 -8.5 3.5t-3.5 8.5v64q0 5 3.5 8.5t8.5 3.5h31q5 0 8.5 -3.5t3.5 -8.5v-64zM511 747q-91 0 -174 -35.5t-143 -95.5t-95.5 -142.5t-35.5 -173.5t35.5 -174t95.5 -143t143 -95.5t174 -35.5t174 35.5t142.5 95.5t95 143
t35.5 174t-35.5 173.5t-95 142.5t-142.5 95.5t-174 35.5zM510 -65q-99 0 -182.5 48.5t-132.5 132.5t-49 183t49 182.5t132.5 132.5t182.5 49t183 -49t132.5 -132.5t48.5 -182.5t-48.5 -183t-132.5 -132.5t-183 -48.5z" />
    <glyph glyph-name="gonggao" unicode="&#xe601;" 
d="M646 490q-13 -2 -19.5 -9.5t-3.5 -15.5h-1q14 -39 14 -80q0 -40 -14 -80q-3 -9 4 -16.5t20 -9.5h7q25 0 31 16q15 44 15 90q0 45 -15 89q-3 9 -14 13.5t-24 2.5zM872 671q-5 8 -17.5 11t-24 -1t-16 -12t0.5 -16v0q89 -127 89 -268t-89 -268q-5 -8 -0.5 -16t16.5 -12
q6 -2 13 -2q20 0 28 12q96 136 96 286t-96 286zM789 555q-4 9 -15.5 12.5t-24 1t-18 -10.5t-1.5 -17q39 -75 39 -156t-40 -157q-4 -8 2 -16t18 -11q5 -1 10 -1q23 0 30 14q43 84 43 171q0 89 -43 170zM500 722q-51 -32 -224 -183h-194q-9 0 -16 -6.5t-7 -16.5v-269
q0 -9 7 -16t16 -7h198q169 -146 220 -179q16 -10 28 -11t18.5 4t10.5 12.5t5 12.5t1 7v307v14v307v0q0 2 -1 6t-5.5 12.5t-10.5 13t-18 3.5t-28 -11z" />
    <glyph glyph-name="favor" unicode="&#xe673;" 
d="M767 -64q-8 0 -15 4l-242 134l-242 -133q-17 -10 -33.5 1.5t-13.5 31.5l47 285l-196 202q-14 14 -8 32.5t25 21.5l156 26q13 3 23.5 -5t13 -21t-5.5 -23.5t-21 -13.5l-95 -16l166 -170q11 -12 8 -28l-39 -235l200 110q15 8 31 -1l199 -110l-38 236q-3 16 9 27l164 169
l-225 34q-17 3 -24 18l-100 213l-100 -212q-5 -12 -17.5 -16.5t-24.5 1t-16.5 18t0.5 24.5l130 274q8 18 29 18v0q20 0 29 -18l120 -259l271 -42q19 -3 25 -21.5t-7 -32.5l-197 -201l46 -285q3 -20 -14 -31q-8 -6 -18 -6z" />
    <glyph glyph-name="search" unicode="&#xe674;" 
d="M954 -12l-153 163q96 116 96 265q0 113 -56 209t-151.5 151.5t-208.5 55.5t-209 -55.5t-151.5 -151.5t-55.5 -209t55.5 -208.5t151.5 -151.5t209 -56q90 0 172 37q12 6 16.5 18.5t-1 24.5t-18 16.5t-24.5 -0.5q-69 -32 -145 -32q-96 0 -177 47.5t-128 128.5t-47 176.5
t47 176.5t128 128t176.5 47t176.5 -47t128.5 -128t47.5 -177q0 -141 -98 -244q-9 -9 -9 -22.5t10 -22.5l1 -1t1.5 -1t1.5 -1.5t1 -2.5l166 -177q9 -10 23 -10q13 0 22 9q10 9 10.5 22t-8.5 23z" />
    <glyph glyph-name="deliver" unicode="&#xe675;" 
d="M352 320h-128q-13 0 -22.5 9.5t-9.5 22.5t9.5 22.5t22.5 9.5h96v96q0 13 9.5 22.5t22.5 9.5t22.5 -9.5t9.5 -22.5v-128q0 -13 -9.5 -22.5t-22.5 -9.5zM702 229q-46 0 -81.5 -28.5t-45.5 -72.5h-124q-10 44 -45.5 72.5t-81.5 28.5q-55 0 -93 -38.5t-38 -92.5t38 -92.5
t93 -38.5q44 0 79 27.5t47 69.5h126q12 -42 46.5 -69.5t79.5 -27.5q54 0 92.5 38.5t38.5 92.5t-38.5 92.5t-92.5 38.5zM323.5 31q-27.5 0 -47 19.5t-19.5 47.5t19.5 47.5t47 19.5t47.5 -19.5t20 -47.5t-20 -47.5t-47.5 -19.5zM702 31q-28 0 -47.5 19.5t-19.5 47.5t19.5 47.5
t47.5 19.5t47.5 -19.5t19.5 -47.5t-19.5 -47.5t-47.5 -19.5zM864 800h-464q-33 0 -56.5 -23.5t-23.5 -56.5v-92l-195 -98l-4 -2q-56 -40 -56 -112v-322q0 -13 9.5 -22.5t23 -9.5t22.5 9.5t9 22.5v322q0 38 27 58l210 105q1 1 2.5 2l1.5 1q4 3 5 4t4 5l3 6q0 2 1 6
q0 1 0.5 2.5t0.5 2.5v112q0 7 4.5 11.5t11.5 4.5h464q13 0 22.5 -9.5t9.5 -23.5v-607q0 -13 9.5 -22.5t22.5 -9.5t22.5 9.5t9.5 22.5v607q0 40 -28 68.5t-68 28.5z" />
    <glyph glyph-name="evaluate" unicode="&#xe676;" 
d="M406 -36q-15 0 -24 11q-24 26 -55.5 45t-57.5 28t-53.5 14t-38 6t-16.5 1v0q-13 0 -22.5 9t-9.5 22.5t9 23t22 9.5q6 0 21 -1t47 -7t64 -17t70 -34.5t67 -56.5q9 -10 8.5 -23t-10.5 -22q-9 -8 -21 -8zM620 -36q-12 0 -22 8q-9 9 -9.5 22.5t8.5 23.5q30 32 68.5 56
t70 34.5t63.5 16.5t46 7t21 1q13 0 22 -9.5t9 -23t-9.5 -22.5t-22.5 -9v0v0q-6 0 -16 -0.5t-37.5 -6t-53.5 -14.5t-58 -28.5t-56 -45.5q-10 -10 -24 -10zM564 127h-102q-5 0 -9 1q-81 11 -148 56.5t-112 121.5q-51 87 -62 191t23 186q8 19 29 19h10q91 0 169 -34
q57 103 128 155q4 3 8 5v0q16 7 31 -2l4 -4q71 -51 127 -156q79 36 173 36h10q21 0 29 -19q34 -82 23 -186t-62 -192q-45 -75 -112 -121t-148 -56q-5 -1 -9 -1zM468 191h90h2q140 16 217 147q41 69 52.5 151.5t-9.5 148.5q-88 -3 -159 -42q-12 -7 -25 -3t-19 17
q-49 99 -106 148q-58 -50 -106 -146q-6 -13 -19 -17t-25 3q-70 38 -155 40q-21 -66 -9.5 -148.5t52.5 -151.5q77 -131 217 -147h2zM513 -64q-13 0 -22.5 9.5t-9.5 22.5v191q0 13 9.5 22.5t22.5 9.5t22.5 -9.5t9.5 -22.5v-191q0 -13 -9.5 -22.5t-22.5 -9.5z" />
    <glyph glyph-name="pay" unicode="&#xe677;" 
d="M799 -4h-639q-40 0 -68 28t-28 68v578q0 40 28 68t68 28h642q40 0 68 -28t28 -68v-94q0 -13 -9 -22.5t-22.5 -9.5t-23 9.5t-9.5 22.5v94q0 13 -9 22.5t-23 9.5h-642q-13 0 -22.5 -9.5t-9.5 -22.5v-578q0 -14 9.5 -23t22.5 -9h639q14 0 23 9t9 23v98q0 14 9.5 23t23 9
t22.5 -9t9 -23v-98q0 -40 -28 -68t-68 -28zM661 382zM630 382q0 13 9.5 22t22 9t22 -9t9.5 -22t-9.5 -22t-22 -9t-22 9t-9.5 22zM896 256h-320q-26 0 -45 19t-19 45v128q0 26 19 45t45 19h320q26 0 45 -19t19 -45v-128q0 -26 -19 -45t-45 -19zM576 448v-128h320v128h-320z
" />
    <glyph glyph-name="send" unicode="&#xe678;" 
d="M287 384h-62q-13 0 -22.5 9.5t-9.5 22.5t9.5 22.5t22.5 9.5h62q13 0 22.5 -9.5t9.5 -22.5t-9.5 -22.5t-22.5 -9.5zM883 768h-742q-32 0 -54.5 -22.5t-22.5 -54.5v-155v-8v-458q0 -29 21 -49.5t50 -20.5h754q29 0 50 20.5t21 49.5v458v163q0 32 -22.5 54.5t-54.5 22.5z
M896 691v-131h-223v144h210q5 0 9 -4t4 -9zM447 704h162v-360l-71 28q-12 5 -24 0l-67 -28v360zM128 691q0 5 4 9t9 4h242v-144h-255v131zM889 64h-754q-7 0 -7 6v426h255v-200q0 -17 14 -26q8 -6 18 -6q6 0 12 3l99 40l103 -40q15 -7 29.5 2.5t14.5 26.5v200h223v-426
q0 -6 -7 -6z" />
    <glyph glyph-name="shop" unicode="&#xe679;" 
d="M953 543v2q-1 3 -2 5l-75 187q-10 28 -35.5 45t-58.5 17h-527q-33 0 -57 -16t-34 -45l-80 -190q-1 -2 -1 -5q-9 -27 -9 -54q0 -49 25 -91t68 -65v0v0v0v0q36 -19 83 -19q82 0 134 63q52 -62 134 -63q81 1 133 63q52 -62 135 -62q48 0 84 20q42 23 66.5 64.5t24.5 89.5
q0 28 -8 54zM839 391q-22 -12 -54 -12q-29 0 -54 14t-41 39q-4 8 -8 13q-12 13 -31 13q-20 0 -31 -13q-4 -5 -8 -13q-16 -25 -40.5 -39t-53.5 -15q-29 1 -54 15t-41 39q-4 8 -7 12q-11 13 -31.5 13t-30.5 -12q-5 -5 -9 -14q-16 -25 -41 -39t-54 -14q-31 0 -53 12v0v0
q-27 14 -43 40.5t-16 57.5q0 19 6 37q0 1 1 3l79 188q7 19 31 19h527q27 -2 34 -21l74 -185q1 -2 1 -3q6 -18 6 -37q0 -31 -15.5 -57.5t-42.5 -40.5zM863 288q-13 0 -22.5 -9.5t-9.5 -22.5v-175q0 -7 -5 -12.5t-13 -5.5h-602q-7 0 -12.5 5t-5.5 13v171q0 14 -9.5 23t-22.5 9
v0q-13 0 -22.5 -9t-9.5 -23v-171q0 -34 24 -58t58 -24h602q34 0 58 24.5t24 57.5v175q0 13 -9.5 22.5t-22.5 9.5zM768 512h-512q-13 0 -22.5 9.5t-9.5 22.5t9.5 22.5t22.5 9.5h512q13 0 22.5 -9.5t9.5 -22.5t-9.5 -22.5t-22.5 -9.5z" />
    <glyph glyph-name="settings" unicode="&#xe68a;" 
d="M512 288q-40 0 -68 28t-28 68t28 68t68 28t68 -28t28 -68t-28 -68t-68 -28zM512 416q-13 0 -22.5 -9.5t-9.5 -22.5t9.5 -22.5t22.5 -9.5t22.5 9.5t9.5 22.5t-9.5 22.5t-22.5 9.5zM631 -64q-16 0 -26 13l-73 101q-20 -2 -40 0l-73 -101q-13 -18 -35 -12q-52 15 -98 41
q-19 10 -16 32l20 124q-15 13 -28 28l-124 -20q-22 -3 -32 16q-26 46 -41 98q-6 22 12 35l101 73q-1 10 -1 20t1 20l-101 73q-18 13 -12 35q15 52 41 98q10 19 32 16l124 -20q13 15 28 28l-20 124q-3 22 16 32q46 26 98 41q22 6 35 -12l73 -101q20 2 40 0l73 101
q13 18 35 12q52 -15 98 -41q19 -10 16 -32l-20 -124q15 -13 28 -28l124 20q22 3 32 -16q26 -46 41 -98q6 -22 -12 -35l-101 -73q1 -10 1 -20t-1 -20l101 -73q18 -13 12 -35q-15 -52 -41 -98q-10 -19 -32 -16l-124 20q-13 -15 -28 -28l20 -124q3 -22 -16 -32q-46 -26 -98 -41
q-5 -1 -9 -1zM337 23q21 -10 44 -18l70 97q11 15 30 13q31 -4 62 0q19 2 30 -13l70 -97q23 8 44 18l-19 119q-2 18 12 30q25 19 44 44q12 14 30 12l119 -19q10 21 18 44l-97 70q-15 11 -13 30q2 17 2 31t-2 31q-2 19 13 30l97 70q-8 23 -18 44l-119 -19q-18 -2 -30 12
q-19 25 -44 44q-14 12 -12 30l19 119q-21 10 -44 18l-70 -97q-11 -15 -30 -13q-31 4 -62 0q-19 -2 -30 13l-70 97q-23 -8 -44 -18l19 -119q2 -18 -12 -30q-25 -19 -44 -44q-12 -14 -30 -12l-119 19q-10 -21 -18 -44l97 -70q15 -11 13 -30q-2 -17 -2 -31t2 -31q2 -19 -13 -30
l-97 -70q8 -23 18 -44l119 19q18 2 30 -12q19 -25 44 -44q14 -12 12 -30z" />
    <glyph glyph-name="hao" unicode="&#xe602;" 
d="M909 435q0 -17 -6.5 -31.5t-17 -26t-26 -18t-31.5 -6.5h-30q34 0 58 -23t24 -56t-24 -56.5t-58 -23.5h-31q35 0 59 -23.5t24 -56.5q0 -17 -9 -31.5t-25 -25.5t-36.5 -17t-41.5 -6q33 0 54 -24.5t21 -57.5q0 -20 -11.5 -35t-29.5 -25t-38.5 -14.5t-36.5 -4.5h-182h-246
q-33 0 -61 11t-49 31t-32.5 47.5t-11.5 62.5v315q0 21 1.5 41.5t7.5 38.5t18.5 33t34.5 24q20 8 46 25q27 17 55 39q28 23 54 51q27 28 48.5 59.5t34 65.5t12.5 69q1 31 8 51.5t19 33.5t26 18.5t28 5.5q37 0 62 -22.5t35 -74.5q2 -44 -5 -93q-6 -42 -22 -93
q-15 -50 -47 -100h297q34 0 57.5 -22t23.5 -55v0z" />
    <glyph glyph-name="refund" unicode="&#xe6ac;" 
d="M986 306q-8 11 -21 13t-24 -6l-57 -41q15 55 15 111q0 113 -55.5 209t-152 152t-209.5 56t-209 -56t-152 -152t-56 -209t56 -209t152 -152t209 -56q111 0 207 55q6 1 10 4q27 16 51 36q10 8 11.5 21t-7 23.5t-21.5 11.5t-24 -7q-17 -14 -40 -28l-6 -2q-83 -50 -181 -50
q-95 0 -176.5 47.5t-129 128.5t-47.5 177t47.5 177t129 128.5t177 47.5t177 -47.5t128.5 -128.5t47 -177q0 -66 -24 -128l-45 109q-5 12 -17.5 17t-24.5 0t-17 -17.5t0 -24.5l72 -173q0 -1 3 -5v-0.5t1 -0.5v-1q4 -5 10 -8l2 -1q6 -3 11 -3q0 -1 0.5 -0.5t1 0.5t0.5 -0.5
t1 -0.5l0.5 0.5t1.5 0.5q3 0 7 1h0.5h0.5q4 2 7 4h0.5h0.5l152 109q10 8 12.5 21t-5.5 24zM607 522q9 9 9.5 22t-9 22.5t-22.5 10t-23 -9.5l-80 -77l-79 77q-10 10 -23 9.5t-22.5 -10t-9 -22.5t9.5 -22l90 -87v-19h-64q-13 0 -22.5 -9.5t-9.5 -22.5t9.5 -22.5t22.5 -9.5h64
v-32h-64q-13 0 -22.5 -9.5t-9.5 -22.5t9.5 -22.5t22.5 -9.5h64v-67q0 -14 9.5 -23t22.5 -9t22.5 9t9.5 23v67h64q13 0 22.5 9.5t9.5 22.5t-9.5 22.5t-22.5 9.5h-64v32h64q13 0 22.5 9.5t9.5 22.5t-9.5 22.5t-22.5 9.5h-64v14z" />
    <glyph glyph-name="cart" unicode="&#xe6b0;" 
d="M353 64q-27 0 -45.5 -18.5t-18.5 -45.5t18.5 -45.5t45 -18.5t45.5 18.5t19 45.5t-19 45.5t-45 18.5v0zM801 64q-27 0 -45.5 -18.5t-18.5 -45.5t18.5 -45.5t45 -18.5t45.5 18.5t19 45.5t-19 45.5t-45 18.5v0zM864 96h-520q-34 0 -61 24t-31 59l-54 382l-31 179
q-2 11 -11 19.5t-19 8.5h-41q-13 0 -22.5 9.5t-9.5 22.5t9.5 22.5t22.5 9.5h41q35 0 62 -24t31 -59l31 -178l54 -384q2 -11 10.5 -19t18.5 -8h520q13 0 22.5 -9.5t9.5 -22.5t-9.5 -22.5t-22.5 -9.5zM384 224q-12 0 -21.5 8.5t-10.5 21.5t8 23t22 11l434 32q12 0 21 8t10 19
l51 288q2 18 -9 30q-6 7 -15 7h-554q-13 0 -22.5 9.5t-9.5 22.5t9.5 22.5t22.5 9.5h554q38 0 63 -29q30 -33 24 -81l-51 -289q-4 -33 -30.5 -57t-61.5 -24l-431 -32h-3z" />
    <glyph glyph-name="home" unicode="&#xe6b8;" 
d="M980 491l-406 321q-26 21 -62 21t-62 -21l-406 -321q-10 -8 -11.5 -21t6.5 -23.5t21 -12t23 6.5l13 11v-388q0 -40 34.5 -68t74.5 -28h640q37 0 60 26.5t23 69.5v386l12 -9q8 -7 20 -7q15 0 25 12q8 11 6.5 24t-11.5 21zM480 32v177q0 14 32 14t32 -14v-177h-64zM864 64
q0 -32 -19 -32h-236l-0.5 0.5l-0.5 0.5v176q0 31 -25 54.5t-71 23.5t-71 -23.5t-25 -54.5v-176l0.5 -0.5l0.5 -0.5h-212q-15 0 -30 10.5t-15 21.5v438l329 260q9 7 22.5 7t22.5 -7l330 -261v-437z" />
    <glyph glyph-name="cartfill" unicode="&#xe6b9;" 
d="M353 64q-26 0 -45 -18.5t-19 -45t19 -45.5t45.5 -19t45 19t18.5 45.5t-18.5 45t-45.5 18.5v0zM801 64q-26 0 -45 -18.5t-19 -45t19 -45.5t45.5 -19t45 19t18.5 45.5t-18.5 45t-45.5 18.5v0zM937 708q-25 28 -63 28h-641l-2 13q-5 35 -32 59t-62 24h-40q-13 0 -22.5 -9.5
t-9.5 -22.5t9.5 -22.5t22.5 -9.5h40q11 0 20 -8.5t10 -19.5l31 -179l54 -382q5 -35 31.5 -59t61.5 -24h520q13 0 22.5 9.5t9.5 22.5t-9.5 22.5t-22.5 9.5h-520q-10 0 -19 8t-10 19l-5 38l507 31q35 0 61.5 24t30.5 58l51 288q6 48 -24 82z" />
    <glyph glyph-name="homefill" unicode="&#xe6bb;" 
d="M982 492l-409 320q-26 21 -62 21t-62 -21l-406 -321q-10 -8 -11.5 -21t6.5 -23.5t21 -12t24 6.5l13 11v-388q0 -40 34 -68t74 -28h640q38 0 61 26.5t23 69.5v389l14 -12q9 -7 20 -7q16 0 25 13q9 10 7 23t-12 22zM608 99v-67h-64h-64h-64v67v112q0 31 25 54t71 23t71 -23
t25 -54v-112z" />
    <glyph glyph-name="message" unicode="&#xe6bc;" 
d="M640 480h-256q-13 0 -22.5 9.5t-9.5 22.5t9.5 22.5t22.5 9.5h256q13 0 22.5 -9.5t9.5 -22.5t-9.5 -22.5t-22.5 -9.5zM579 352h-195q-13 0 -22.5 9.5t-9.5 22.5t9.5 22.5t22.5 9.5h195q14 0 23 -9.5t9 -22.5t-9 -22.5t-23 -9.5zM962 448q0 104 -60 192.5t-163 140
t-224.5 51.5t-225 -51.5t-163.5 -140t-60 -192.5q0 -87 45.5 -166t127.5 -135q11 -7 24 -4.5t20.5 13.5t5 24t-13.5 20q-69 47 -107 112t-38 136q0 87 51.5 160.5t140 116.5t192.5 43t192.5 -43t140 -116.5t51.5 -160.5t-51.5 -160.5t-140 -116.5t-192.5 -43q-1 0 -3 -0.5
l-2 -0.5q-12 2 -22 -3.5t-14 -16.5q-9 -26 -94 -74q17 58 3 79q-10 16 -30 16q-13 0 -22.5 -9.5t-9.5 -22.5q0 -9 5 -16q-6 -33 -33 -100q-9 -20 7 -35q9 -9 22 -9q7 0 13 3q144 64 188 125q120 2 221 53.5t160 139.5t59 191z" />
    <glyph glyph-name="qq" unicode="&#xe603;" 
d="M332 402l-1 3l-1 4v2v9v3l1 4l2 4l1 4l3 5l3 4v3v3v4l2 4l1 5l1 2l1 3l2 2l1 2v11l1 5l1 7l2 8l2 8l2 4l1 5l2 5l2 5l3 5l2 5l3 5l4 6l2 3l1 2l4 6l4 5l5 6l5 6l5 6l6 5l6 6l5 4l5 4l5 4l6 3l5 3l6 3l7 3l7 2l6 2l7 2l7 2l8 2l7 1l15 2h8h23l8 -1l8 -1l7 -1l8 -1l8 -2
l7 -2l8 -2l7 -3l7 -3l8 -3l7 -3l6 -4l7 -4l5 -4l3 -2l3 -2l5 -4l4 -5l5 -4l4 -5l4 -5l4 -5l3 -5l3 -4l3 -6l2 -5l5 -10l2 -5l2 -5l1 -5l2 -5l1 -4l1 -5l3 -9l1 -7l1 -8l1 -6l1 -9l1 -1l1 -2l3 -5l1 -3l2 -3l2 -4l2 -4l1 -5l2 -4l1 -5v-3v-3v-2v-3v-3l-1 -3l-1 -6l-2 -3
l-1 -4v-1l1 -1l1 -2l7 -10l6 -8l2 -5l4 -6l3 -6l3 -6l4 -8l4 -8l2 -5l2 -5l2 -5l1 -5l2 -5l1 -5l2 -9l1 -9l1 -8v-12l-1 -4v-7l-2 -7l-2 -5v-3l-2 -3l-1 -2l-1 -2l-1 -2l-2 -2l-2 -1l-1 -2h-2l-2 -1l-1 -1h-2l-2 1l-2 1l-1 1l-2 1l-1 1l-1 1l-3 3l-2 4l-3 3l-2 3l-2 4l-3 6
l-3 6v0h-1l-1 -1l-1 -1l-1 -2l-2 -7l-4 -8l-4 -11l-3 -5l-4 -6l-4 -6l-4 -6l-2 -3l-3 -3l-6 -6v0l1 -1l3 -2l13 -6l6 -3l5 -3l5 -4l5 -4l2 -2l2 -2l2 -2l1 -3l1 -2l1 -2v-3l1 -2l-1 -2v-2v-2l-1 -1l-1 -2v-1l-3 -3l-2 -3l-2 -2l-1 -1l-3 -3l-4 -2l-5 -2l-4 -2l-5 -2l-3 -1
l-2 -1l-6 -1l-6 -1l-6 -2l-7 -1h-7l-7 -1h-22l-8 1h-7l-8 1l-8 1l-8 1l-8 2l-8 2l-8 2l-7 3l-8 2l-4 2l-4 1l-2 1h-3h-6l-8 1h-3l-5 1l-3 -3l-5 -3l-6 -2l-6 -4l-4 -2l-4 -1l-9 -4l-5 -1l-5 -2l-7 -1h-4l-5 -1h-5l-6 -1h-23l-13 1l-13 1l-6 1l-13 2l-6 1l-6 2l-5 1l-5 2
l-5 2l-5 2l-4 2l-3 3l-2 2l-1 1l-2 2l-1 2l-1 1l-1 2l-1 3l-1 2v2v2v2v3l1 2v4v2l1 3l1 2l1 4l2 1l1 1l2 3l2 2l2 1l1 1l3 1l2 1l3 2l3 1h3l3 1l4 1h4h4l1 1v0h1v1l-1 1l-2 1l-6 5l-4 3l-4 4l-5 4l-4 6l-6 6l-2 3l-2 4l-2 4l-3 4l-2 5l-2 4l-2 5l-2 6l-2 5l-1 6h-1v0l-1 1v0
l-1 -1h-1v-1v-1l-1 -2l-1 -1l-2 -5l-2 -3l-2 -2l-2 -3l-3 -4l-2 -3l-3 -2l-3 -3l-3 -2l-4 -2l-3 -2l-4 -1h-4h-1h-1l-1 2l-1 1l-1 3l-1 2l-1 3l-1 3l-1 3l-1 7v4v12v10l1 5l1 5l1 5l1 5l2 6l2 6l2 6l2 5l3 6l3 6l3 6l4 6l4 5l4 7l4 4l4 5l5 5l2 2l3 3l4 3l4 4l6 5l5 4z
M511 -63q-91 0 -174 35q-80 34 -142 96t-96 142q-35 84 -35 175t35 174q34 80 96 142t142 96q83 35 174 35t175 -35q80 -34 142 -96t96 -142q35 -83 35 -174t-35 -175q-34 -80 -96 -142t-142 -96q-84 -35 -175 -35v0zM511.5 806q-114.5 0 -211.5 -56.5t-153.5 -153.5
t-56.5 -211.5t56.5 -211.5t153.5 -153.5t211.5 -56.5t211.5 56.5t153.5 153.5t56.5 211.5t-56.5 211.5t-153.5 153.5t-211.5 56.5z" />
    <glyph glyph-name="tubiao" unicode="&#xe604;" 
d="M521 -96v21v-21q-95 0 -182.5 37t-150.5 100.5t-100.5 150.5t-37.5 183t37.5 183t100.5 150t150.5 100.5t183 37.5t183 -37.5t150.5 -100.5t100.5 -150t37.5 -183t-37.5 -183t-100.5 -150.5t-150.5 -100.5t-183.5 -37zM521 803q-116 0 -214.5 -57.5t-156 -156
t-57.5 -214.5t57.5 -215t156 -156t214.5 -57v0q116 0 215 57t156 156t57 215t-57 214.5t-156 156t-215 57.5zM521 276q-9 0 -15 6t-6 15v91q0 9 6 15.5t15 6.5q36 0 61.5 25.5t25.5 61t-25.5 61t-61 25.5t-61 -25.5t-25.5 -61.5q0 -9 -6.5 -15t-15.5 -6t-15 6t-6 15
q0 54 38 92t91.5 38t91.5 -38t38 -92q0 -47 -31 -83.5t-77 -43.5v-72q0 -9 -6.5 -15t-15.5 -6zM557 178q0 -15 -10.5 -25t-25 -10t-25 10t-10.5 25t10.5 25.5t25 10.5t25 -10.5t10.5 -25.5z" />
    <glyph glyph-name="tixing" unicode="&#xe6a1;" 
d="M615 -44v-9q0 -4 0.5 -9t0.5 -10q-1 -15 -8.5 -33.5t-29.5 -26.5q-9 -4 -23.5 -10t-43.5 -6q-24 0 -40 5.5t-25 7.5q-11 3 -18 10.5t-11 17.5t-4.5 20t-0.5 18v26zM793 491q21 -50 24.5 -94t-4.5 -81t-24 -66.5t-32.5 -52t-31.5 -36.5t-20 -19q-8 -8 -15 -11.5t-12.5 -6
t-10.5 -5.5t-10 -11q-10 -15 -16 -30t-10 -29q-4 -11 -9 -18.5t-11 -13.5t-13 -10h-180q-6 4 -12 10t-11.5 15t-9.5 23q-9 24 -20.5 38t-30.5 28q-13 10 -30 26.5t-33.5 38.5t-31 49.5t-23.5 60t-10.5 70t7.5 78.5q14 65 48 110t76.5 72t88 38.5t82.5 11.5q39 0 80.5 -10.5
t80.5 -33t71.5 -57.5t52.5 -84v0zM710 324q36 144 -91 219q-22 13 -50 20.5t-57.5 7.5t-58.5 -7.5t-52 -23.5q-56 -38 -75.5 -83t-17.5 -95q0 -28 9 -50t20.5 -40t24.5 -32q13 -13 23 -24q21 -22 36 -37q15 -16 24 -40t28.5 -29.5t35.5 -5.5q21 0 41 9.5t28 29.5
q4 11 16.5 27.5t38.5 45.5q13 16 24.5 27.5t22 23t18.5 25t12 32.5v0zM710 324z" />
    <glyph glyph-name="home1" unicode="&#xe605;" 
d="M736 324v0l-85 85l-77 77l-41 41q-9 9 -21 9t-20 -9l-41 -41v0l-211 -211h-1v-273h182v162q0 27 19.5 46.5t46.5 19.5h50q28 0 47 -19.5t19 -46.5v-162h182v273v0zM956 334l-412 421v0q-12 9 -28 11h-1h-4h-3h-1q-16 -2 -28 -11v0l-413 -421q-3 -4 -1 -9t7 -5h120
q2 0 4 2l315 307v0h1l315 -307q1 -2 4 -2h120q5 0 7 5t-2 9z" />
    <glyph glyph-name="anquanzhongxin" unicode="&#xe633;" 
d="M793 513q-94 -11 -141 0q-13 3 -32 12.5t-37.5 21.5t-35 23.5t-27 19l-10.5 7.5q-96 -74 -139 -84q-21 -5 -56 -5t-60 2l-25 3q0 -6 -0.5 -16t0.5 -42.5t5 -65.5t15 -82.5t27 -95.5t46 -89.5t61 -72.5t61 -52t47.5 -34t18.5 -11q8 4 20 11.5t46 32.5t62.5 53t59.5 72
t47 90t27 95t15 83t5 66t0.5 42t-0.5 16v0zM662 235q-35 -100 -151 -184q-115 84 -150 184q-33 93 -41 192q43 1 72 7q46 11 119 61q75 -50 119 -61q30 -6 73 -7q-8 -98 -41 -192zM512 -212q-104 0 -199 40.5t-163.5 109t-109 163.5t-40.5 199t40.5 199t109 163.5t163.5 109
t199 40.5t199 -40.5t163.5 -109t109 -163.5t40.5 -199t-40.5 -199t-109 -163.5t-163.5 -109t-199 -40.5zM512 774q-96 0 -184 -37.5t-151.5 -101t-101 -151.5t-37.5 -184t37.5 -184t101 -151.5t151.5 -101t184 -37.5t184 37.5t151.5 101t101 151.5t37.5 184t-37.5 184
t-101 151.5t-151.5 101t-184 37.5z" />
    <glyph glyph-name="tuicangjihua" unicode="&#xe67a;" 
d="M660 184h-94v216h-106v-216h-95q-15 -17 -15 -41.5t15 -41.5l111 -125q15 -18 36.5 -18t37.5 18l110 125q15 17 15 41.5t-15 41.5v0zM943 327l-393 392q-17 17 -40 17t-40 -17l-181 -182v87q0 23 -16.5 39.5t-39.5 16.5t-39.5 -16.5t-16.5 -39.5v-193l-96 -104
q-17 -16 -17 -39.5t17 -39.5q17 -17 40 -16v-279q0 -47 33 -79.5t79 -32.5h168q23 0 39.5 16.5t16.5 39.5v56h-168q-23 0 -39.5 16t-16.5 40v111v202l277 279l282 -282v-310q0 -24 -16 -40t-40 -16h-167v-56q0 -23 16 -39.5t40 -16.5h167q47 0 79.5 32.5t32.5 79.5v278
q23 1 39 17t16 39t-16 40v0zM943 327z" />
    <glyph glyph-name="we" unicode="&#xe6f5;" 
d="M863 384q0 116 -68 211q-8 10 -21 12.5t-23.5 -5.5t-13 -21t5.5 -24q56 -78 56 -173t-56 -173q-8 -11 -5.5 -24t12.5 -21q9 -6 19 -6q16 0 26 13q68 95 68 211zM271.5 602q-10.5 8 -23.5 5.5t-21 -12.5q-68 -95 -68 -211t68 -211q10 -13 26 -13q10 0 19 6q10 8 12.5 21
t-5.5 24q-56 78 -56 173t56 173q8 11 5.5 24t-13 21zM851 757q-8 10 -21.5 11t-23.5 -8t-11 -22t8 -23q61 -69 93 -154.5t32 -176.5t-32 -176.5t-93 -154.5q-9 -10 -8 -23t11 -22q9 -8 21 -8q15 0 24 11q68 78 104.5 174t36.5 199t-36.5 199t-104.5 174zM97 384
q0 91 32.5 176.5t92.5 154.5q9 10 8 23t-11 22t-23 8t-22 -11q-68 -78 -104.5 -174t-36.5 -199t36.5 -199t104.5 -174q9 -11 24 -11q12 0 21 8q10 9 11 22t-8 23q-60 69 -92.5 154.5t-32.5 176.5zM514.5 608q-92.5 0 -158.5 -65.5t-66 -158.5q0 -48 19.5 -91.5t55.5 -75.5
q10 -9 23 -8t22 11t8 23t-10 22q-54 48 -54 119q0 66 47 113t113 47t113 -47t47 -113t-47 -113t-113 -47h-11q-23 0 -30 -21q-12 -33 -36 -58q-10 -10 -9.5 -23t10 -22.5t22.5 -9.5t23 10q26 27 42 60q89 4 151 69t62 155q0 93 -65.5 158.5t-158 65.5z" />
    <glyph glyph-name="youxiang" unicode="&#xe63c;" 
d="M886 604h-748q-31 0 -53 -22t-22 -53v-458q0 -31 22 -53t53 -22h748q31 0 53 22t22 53v458q0 31 -22 53t-53 22v0zM868 550l-298 -264q-39 -35 -58 -35t-58 35l-298 264h712v0zM119 88v414l233 -205l-233 -209v0zM158 50l234 207l38 -34q34 -29 82 -29t82 29l38 34
l234 -207h-708v0zM905 88l-233 209l233 205v-414v0zM905 88z" />
    <glyph glyph-name="jifen1" unicode="&#xe65f;" 
d="M511 12v116h-168v50h168v51h-168v53h138l-164 254h81l117 -185q20 -31 31 -55q9 19 33 58l111 182h87l-164 -254h138v-53h-167v-51h167v-50h-167v-116h-73v0zM930 288q1 -77 -26 -149q-27 -73 -78 -131q-53 -61 -123 -98q-19 -9 -37 -17q-19 -7 -38 -13q-21 -6 -40 -9
q-10 -2 -21 -4q-5 0 -10 -1l-5 -1h-3h-2v0v0h-3h-2l-6 -1h-10q-10 -1 -21 -1q-22 1 -42 3q-21 3 -42 7q-10 2 -20 5t-21 7q-83 27 -148 87q-66 60 -102 143q-5 10 -9 20q-4 11 -7 21.5t-6 21.5q-3 9 -5 22q-5 23 -7 44l-2 22v11v5v3v3v6v5v11l2 22q2 22 7 44q1 7 2 11
q1 6 3 11l6 22q6 20 16 41q36 82 102 143q65 59 148 87q40 13 83 19q21 2 42 2h21q5 0 10 -1h6h5l5 -1h5l10 -2q11 -1 21 -3q19 -3 40 -9q19 -6 38 -14q18 -7 36 -17q71 -36 124 -97q51 -59 78 -131t26 -149v0v0zM922 288q0 75 -28 145q-29 69 -81 122q-53 54 -122 83
q-35 14 -71 21t-73 7t-73.5 -7.5t-70 -22t-64.5 -35.5q-30 -21 -56 -48q-52 -53 -80 -122q-28 -68 -28 -143q0 -37 7 -73t21 -70q28 -69 80 -122q26 -27 56 -48q31 -21 64.5 -35.5t70 -22t73.5 -7.5t73 7t71 21q69 29 121.5 82.5t81.5 122.5q28 70 28 145v0z" />
    <glyph glyph-name="jinrudianpu" unicode="&#xe67b;" 
d="M832 772l-7 11h-610l-7 -9q-55 -70 -86 -133t-36.5 -109.5t-1 -76.5t16.5 -55q20 -41 57.5 -65.5t79.5 -24.5h6q85 4 145 65q53 -61 132 -61q82 0 136 64q80 -65 152 -65q62 0 105 49q25 30 31.5 72t-4.5 88t-25 86.5t-36 80.5t-31.5 56.5t-16.5 26.5zM834 283
q-10 0 -17 -7t-7 -17v0v0v0v-173q0 -20 -14 -34.5t-34 -14.5h-207v0h-288q-20 0 -34 14.5t-14 34.5v173q0 10 -7 17t-17 7t-17 -7t-7 -17v-178q0 -38 27 -65t64 -27h505q37 0 64 27t27 65v178q0 10 -7 17t-17 7z" />
    <glyph glyph-name="msnui-safe" unicode="&#xe6a2;" 
d="M923 756v-457q0 -41 -20.5 -81.5t-54 -78.5t-76 -72.5t-86.5 -60.5q-44 -27 -85.5 -44.5t-72.5 -24.5l-10 -1l-9 1q-32 7 -74 24.5t-88 44t-90 61t-78.5 72.5t-55.5 78.5t-21 81.5v457l33 5l378 71l385 -71zM513 766h-4l-325 -55v-288h329v343zM840 423h-327v-410
q32 7 69 22t73 35.5t69.5 45t59 53t41 59.5t15.5 62v133z" />
    <glyph glyph-name="01" unicode="&#xe606;" 
d="M189 549zM131 549q0 24 17 41t41 17t41 -17t17 -41t-17 -41t-41 -17t-41 17t-17 41zM304 574q-4 0 -7 -3t-3 -7v-31q0 -4 3 -7t7 -3h579q4 0 7 3t3 7v31q0 4 -3 7t-7 3h-579zM189 355zM131 355q0 24 17 41t41 17t41 -17t17 -41t-17 -41.5t-41 -17.5t-41 17.5t-17 41.5z
M294 339q0 -4 3 -7t7 -3h579q4 0 7 3t3 7v31q0 4 -3 7t-7 3h-579q-4 0 -7 -3t-3 -7v-31zM189 161zM131 161q0 24 17 41t41 17t41 -17t17 -41t-17 -41.5t-41 -17.5t-41 17.5t-17 41.5zM294 145q0 -4 3 -7t7 -3h579q4 0 7 3t3 7v31q0 4 -3 7t-7 3h-579q-4 0 -7 -3t-3 -7v-31z
" />
    <glyph glyph-name="lajitong" unicode="&#xe647;" 
d="M470 67v323q0 10 -7.5 17t-17.5 7t-17.5 -7t-7.5 -17v-323q0 -10 7.5 -17t17.5 -7t17.5 7t7.5 17zM420 563h199q10 0 17 7t7 17.5t-7 18t-17 7.5h-199q-10 0 -17 -7.5t-7 -18t7 -17.5t17 -7zM742.5 439q-10.5 0 -17.5 -7t-7 -18v-371q0 -21 -14.5 -35.5t-35.5 -14.5h-297
q-21 0 -35.5 14.5t-14.5 35.5v371q0 11 -7 18t-17.5 7t-17.5 -7t-7 -18v-99v-322q0 -20 14.5 -34.5t34.5 -14.5h397q20 0 34.5 14.5t14.5 34.5v322v99q0 11 -7 18t-17.5 7zM817 538h-595q-10 0 -17.5 -7t-7.5 -17.5t7.5 -17.5t17.5 -7h595q10 0 17.5 7t7.5 17.5t-7.5 17.5
t-17.5 7zM619 67v323q0 10 -7.5 17t-18 7t-17.5 -7t-7 -17v-323q0 -10 7 -17t17.5 -7t18 7t7.5 17z" />
    <glyph glyph-name="delete" unicode="&#xe607;" 
d="M480 612h64v-549h-64v549zM329 612h64v-549h-64v549zM631 612h64v-549h-64v549zM896 737h-126h-46v41q0 23 -18.5 39t-45.5 16h-296q-27 0 -45.5 -16t-18.5 -39v-41h-46h-131v-64h67v-675q0 -25 19 -43.5t45 -18.5h516q26 0 45 18.5t19 43.5v675h62v64v0zM364 769h296
v-32h-296v32zM771 0h-1l-516 -2v675h110h296h110z" />
    <glyph glyph-name="pingjia" unicode="&#xe608;" 
d="M256 -95q-6 0 -12 2q-20 8 -20 30v121q-85 60 -135 147q-57 99 -57 211q0 92 38 175q37 81 104 142q66 62 152 96q89 35 186 35t186 -35q86 -34 152 -96q66 -61 103 -142q38 -83 38 -174.5t-38 -175.5q-37 -80 -103 -142t-152 -95q-89 -35 -186 -35q-80 0 -155 24
l-79 -79q-9 -9 -22 -9zM512 800q-85 0 -163 -30q-75 -30 -132 -83q-59 -54 -90 -124t-31 -147q0 -95 48 -179q47 -82 129 -135q15 -10 15 -27v-62l38 38q14 15 33 8q73 -27 153 -27q85 0 162 31q75 29 133 83t89.5 124t31.5 146.5t-31.5 146.5t-89.5 124q-58 53 -133 83
q-77 30 -162 30zM448 205q-21 0 -36 15l-128 128q-15 15 -15 36t15 36t36 15t36 -15l92 -91l219 219q15 15 36.5 15t36.5 -15t15 -36t-15 -36l-256 -256q-15 -15 -36 -15z" />
    <glyph glyph-name="creative" unicode="&#xe719;" 
d="M576 -93h-128q-53 0 -90.5 37.5t-37.5 90.5v56q0 33 -17 76.5t-39 68.5q-4 4 -9 10.5t-17.5 26t-21.5 40t-16.5 51.5t-7.5 62q0 87 43 161t116.5 116.5t160.5 42.5t160.5 -42.5t116.5 -116.5t43 -161q0 -31 -7.5 -62t-16.5 -51.5t-21.5 -40t-17.5 -26t-9 -10.5
q-22 -25 -39 -68.5t-17 -76.5v-56q0 -53 -37.5 -90.5t-90.5 -37.5zM512 682q-106 0 -181 -75t-75 -181q0 -38 15 -76t24.5 -51.5t15.5 -19.5q31 -33 52 -88t21 -100v-56q0 -26 19 -45t45 -19h128q26 0 45 19t19 45v56q0 45 21 100t52 88q7 8 16 20.5t24 50.5t15 76
q0 106 -75 181t-181 75zM640 320q-23 0 -30 22l-16 47l-59 -60q-10 -9 -23 -9t-23 9l-59 60l-16 -47q-4 -13 -16 -19t-24.5 -1.5t-18.5 16.5t-1 24l32 96q5 17 22.5 21t30.5 -8l73 -74l73 74q13 12 30.5 8t22.5 -21l32 -96q5 -12 -1 -24t-19 -16q-5 -2 -10 -2zM864 640
q-15 0 -24 10t-8.5 23.5t10.5 21.5l33 30q10 9 23 8t22 -10.5t8 -23t-10 -22.5l-33 -29q-9 -8 -21 -8zM160 640q-12 0 -21 8l-33 29q-9 9 -10 22.5t8 23t22 10.5t23 -8l33 -30q10 -8 10.5 -21.5t-8.5 -23.5t-24 -10zM512 768q-13 0 -22.5 9.5t-9.5 22.5v32q0 13 9.5 22.5
t22.5 9.5t22.5 -9.5t9.5 -22.5v-32q0 -13 -9.5 -22.5t-22.5 -9.5zM576 32h-128q-13 0 -22.5 9.5t-9.5 22.5t9.5 22.5t22.5 9.5h128q13 0 22.5 -9.5t9.5 -22.5t-9.5 -22.5t-22.5 -9.5z" />
    <glyph glyph-name="bad" unicode="&#xe723;" 
d="M127 129q-13 0 -22 -9.5t-9 -22.5t9 -22.5t23 -9.5q4 0 11 -0.5t27 -5.5t39 -13.5t44.5 -26.5t47.5 -42q10 -10 24 -10q12 0 21 8q10 9 10.5 22.5t-8.5 22.5q-27 31 -60 53t-56.5 32.5t-50.5 16.5t-34 6.5t-16 0.5zM868 127q-4 1 -10.5 1t-23 -1.5t-33.5 -4.5t-41 -10.5
t-46.5 -18.5t-48 -30t-47.5 -42q-9 -10 -8.5 -23t9.5 -23q10 -8 22 -8q14 0 24 10q24 26 53 44.5t52.5 26t46 12.5t33 3.5t13.5 -0.5q13 -1 23 8t11 22t-7.5 23t-21.5 11zM926 349q-29 70 -121 158q60 44 88 112q9 21 -9 37q-77 63 -194.5 103.5t-226.5 40.5
q-185 0 -259 -114v0q-18 -21 -37 -78q0 -2 -1 -5q-10 -39 -5 -82v-2v-1q0 -9 1 -23t7.5 -52t17 -77t33.5 -93.5t53 -106t79 -111t109 -111.5q9 -8 21 -8q15 0 24 11q9 10 8 23.5t-11 21.5q-162 140 -234 333q76 -77 181.5 -130.5t196.5 -66.5h4q18 0 27 15q49 76 40 143h21
q100 0 167 20q13 5 19.5 17.5t0.5 25.5zM739 350q-34 0 -68 3q-22 2 -31.5 -18t5.5 -36q12 -10 9.5 -40t-20.5 -64q-98 20 -206 85.5t-164 150.5q-55 83 -36 157l1 1q11 31 28 61v1q56 85 206 85q91 0 191 -32t169 -82q-29 -52 -86 -81q-14 -8 -16.5 -24.5t10.5 -27.5
q87 -80 118 -130q-53 -9 -110 -9z" />
    <glyph glyph-name="gouwuche" unicode="&#xe609;" 
d="M812 189h-469l25 85v1q5 7 3 16v1l-67 341v0q-4 14 -18 15l-0.5 0.5t-1.5 0.5v0l-70 13v-1q-8 2 -15 -3t-8 -13.5t4 -15t13 -7.5l60 -11l61 -322l-35 -108v0l-0.5 -1l-0.5 -1l-2 -4q0 -1 -1 -4v-0.5v-1v-1v-0.5q0 -2 1 -4.5t1 -3.5l3 -3q1 -2 2 -3l0.5 -0.5t1 -0.5
t1 -0.5t1.5 -0.5q1 -1 3 -2q2 0 5 -1h0.5h0.5v0h502v0q9 0 15 6t6 14.5t-6 14t-15 5.5v0zM845 533l1 4q0 1 -0.5 2l-0.5 1v1q-1 4 -2 6q0 1 -1 1q-2 3 -4 5l-2 1t-5 2l-0.5 0.5l-0.5 0.5h-1h-1h-1h-1h-451v0q-9 0 -15 -6t-6 -14t6 -14t15 -6v0h408h15l-68 -217h-281v0
q-9 0 -14.5 -6t-5.5 -14t5.5 -14t14.5 -6v0h289v0h1h1v0q8 -1 15 3t9 13v0l80 253l1 1l1 3h-1v0v0v0zM419 111q-15 0 -25.5 -11t-10.5 -26t10.5 -25.5t26 -10.5t26 10.5t10.5 25.5t-10.5 26t-26.5 11v0zM697 111q-15 0 -26 -11t-11 -26t11 -25.5t26 -10.5t25.5 10.5
t10.5 25.5t-10.5 26t-25.5 11v0zM697 111zM512 852q-96 0 -183 -37.5t-149.5 -100.5t-100 -149.5t-37.5 -182.5t37.5 -183t100 -149.5t149.5 -100t183 -37.5t183 37.5t149.5 100t100 149.5t37.5 183t-37.5 182.5t-100 149.5t-149.5 100.5t-183 37.5zM512 -49q-117 0 -216 58
t-157 157t-58 216t58 216t157 156.5t216 57.5t216 -57.5t157 -156.5t58 -216t-58 -216t-157 -157t-216 -58z" />
    <glyph glyph-name="weixin" unicode="&#xe60a;" 
d="M512 880q100 0 190.5 -38.5t159 -107t107 -159t38.5 -191.5t-38.5 -191.5t-107 -159t-159 -106.5t-191 -38t-191 38t-159.5 107v0q-68 68 -106.5 158.5t-38.5 191.5t38.5 191.5t106.5 158.5v0q69 69 159.5 107.5t191.5 38.5v0zM849 722q-66 66 -153 103t-184.5 37
t-184.5 -37t-153 -103t-103 -153.5t-37 -184.5t37 -184.5t103 -153.5t153 -103t184.5 -37t184.5 37t153 103t103 153.5t37 184.5t-37 184.5t-103 153.5v0zM415 651q-94 0 -161 -57.5t-67 -139.5q0 -85 72 -143l-19 -36q-5 -9 2.5 -17t17.5 -4l58 22q46 -19 97 -19v0
q-3 18 -3 35q0 84 68 143q66 57 158 58q-16 68 -78.5 113t-144.5 45v0zM499 565q-12 0 -20 -8t-8 -19.5t8 -19.5t19.5 -8t19.5 8t8 19.5t-8 19.5t-19 8v0zM333 565q-12 0 -20 -8t-8 -19.5t8 -19.5t19.5 -8t19.5 8t8 19.5t-8 19.5t-19 8v0zM639 463q81 0 139 -50t58 -121
q0 -74 -62 -124l16 -31q4 -8 -2 -15t-15 -4l-50 20q-40 -17 -84 -17q-82 0 -139.5 50t-57.5 121t57.5 121t139.5 50v0zM566 388q10 0 17 -7t7 -17t-7 -17t-17 -7t-17 7t-7 17t7 17t17 7v0zM710 388q10 0 17 -7t7 -17t-7 -17t-17 -7t-17 7t-7 17t7 17t17 7v0z" />
    <glyph glyph-name="tuichu" unicode="&#xe7c7;" 
d="M819 109q-9 0 -17 -4q-25 -11 -25 -38v-42h-582v583h582v-42q0 -26 25 -37q8 -4 17 -4q17 0 29 12t12 29v42q0 13 -3 25v0q-3 10 -9 18q-16 27 -46 37v0v0q-12 3 -25 3h-582q-14 0 -25 -3q-41 -13 -55 -55v0v0q-4 -12 -4 -25v-583q0 -13 4 -24q13 -42 55 -55v0
q11 -4 25 -4h582q14 0 25 4v0v0q19 6 34 21t21 34q3 12 3 24v42q0 17 -12 29.5t-29 12.5zM938 296v0l1 1v0q0 1 1 2v0q0 1 1 2v0v2v0q1 1 1 2v0v2h1v2v0v2v0v2h1v0v1.5v1.5v1v0v2v1v0.5t-1 0.5v1v1v1v1v1l-1 1v1v1l-1 1v1v1v0q-1 1 -1 2v0q-1 1 -1 2v0q-1 1 -1 2v0
q-3 5 -7 9l-124 124q-13 12 -30 12t-29 -12t-12 -29.5t12 -29.5l54 -54h-441q-17 0 -29 -12t-12 -29.5t12 -29.5t29 -12h441l-57 -56q-12 -12 -12 -29.5t12.5 -29.5t29.5 -12t29 12l127 127q4 4 7 9z" />
    <glyph glyph-name="shoucang" unicode="&#xe60b;" 
d="M257 -62q-11 0 -19 7q-18 14 -12 37l76 271l-226 201q-17 15 -9 37t30 22h288l94 283q8 23 31 23v0q23 0 30 -22l98 -284h287q23 0 30.5 -22.5t-10.5 -37.5l-229 -189l80 -282q6 -23 -12 -37t-37 -1l-237 165l-235 -165q-8 -6 -18 -6zM510 183q10 0 18 -6l181 -125
l-62 215q-6 22 11 36l174 143h-216q-23 0 -31 22l-75 216l-71 -215q-8 -23 -31 -23h-223l175 -157q16 -14 10 -35l-57 -202l179 125q8 6 18 6z" />
    <glyph glyph-name="shoucang1" unicode="&#xe60c;" 
d="M782 -20l-264 169l-262 -173l71 317l-237 242l308 2l115 294l122 -296l310 1l-239 -240l76 -316v0zM782 -20z" />
    <glyph glyph-name="paixingbang" unicode="&#xe60d;" 
d="M461 541l34 13h-64v42h94l-13 32l58 7q6 -17 12 -39h93v-42h-64l32 -9q-9 -14 -18 -30h52v-66h-47v25h-158v-25h-42l-11 -14h100l-13 28l58 7q6 -16 12 -35h113v-42h-166q-1 -11 -1 -20h141q-1 -68 -7 -87t-19.5 -30t-31.5 -13t-82 -2q-2 26 -6 50q42 -3 67 -3
q15 0 19 13t4 30h-92q-11 -60 -89 -98q-17 26 -34 44q40 19 58 40.5t21 75.5h-52v42l-16 -21l-17 17v-195h-51v162q-15 -37 -37 -72q-5 37 -13 74q32 53 48 109h-41v52h43v72h51v-72h36v-52h-36v-23q19 -13 38 -27v56h53q-8 14 -16 26zM531 515h39q10 19 18 39h-79
q11 -19 22 -39zM487.5 832q-108.5 0 -200.5 -53t-145 -145t-53 -200.5t53 -200t145 -145t200.5 -53.5t200 53.5t145 145t53.5 200t-53.5 200.5t-145 145t-200 53zM487.5 64q-100.5 0 -186 49.5t-135 134.5t-49.5 185.5t49.5 186t135 135t186 49.5t186 -49.5t135 -135
t49.5 -186t-49.5 -185.5t-135 -134.5t-186 -49.5z" />
    <glyph glyph-name="baidu" unicode="&#xe60e;" 
d="M603 220h-42q-5 4 -5 13v89l-48 -1v-98l2.5 -7.5t11.5 -12t25 -7.5h80v119h-24v-95zM461 315h-45q-2 1 -4.5 0.5t-10.5 -2.5t-15 -6.5t-14.5 -14t-11.5 -22.5q-1 -8 -1 -15.5t1 -13t2 -8.5t2.5 -6.5l1.5 -3.5q2 -3 6 -8.5t16 -12t27 -6.5h69v180h-23v-61zM461 220h-36
q-2 0 -6 1t-11.5 7.5t-10.5 17.5t2 27q6 19 24 19h38v-72zM511 834q-91 0 -173.5 -35t-142.5 -95t-95.5 -143t-35.5 -174t35.5 -174t95.5 -143t142.5 -95.5t173.5 -35.5t174 35.5t143 95.5t95.5 143t35.5 174t-35.5 174t-95.5 143t-143 95t-174 35zM539 597q2 26 26.5 53
t46.5 22q24 -5 41 -31t13 -53q-5 -31 -26.5 -55.5t-51.5 -20.5t-41.5 27.5t-7.5 57.5zM446.5 686q24.5 0 42 -24.5t17.5 -59.5t-17.5 -60t-42 -25t-42 25t-17.5 60t17.5 59.5t42 24.5zM261 486q0 3 1 7.5t5 17t9 22t16 18t24 9.5q26 2 46.5 -19.5t23.5 -43.5q10 -86 -50 -99
q-40 -9 -60.5 24.5t-14.5 63.5zM714 186.5q-9 -21.5 -28 -33.5t-39.5 -13t-39.5 0.5t-32 5.5l-12 3q-5 2 -13.5 3.5t-34.5 4t-47 -4.5q-23 -5 -46.5 -6.5t-36.5 -1.5l-12 1q-2 0 -6.5 0.5t-15.5 4t-20.5 10.5t-19.5 22.5t-15 36.5q-3 24 0 41t14.5 33t21 25t19.5 16.5
t11 8.5t14 12t29 28t27 36q10 17 28 29t39.5 15.5t45.5 -9t43 -42.5q11 -16 26.5 -33t29 -30t25.5 -24t20 -16l7 -6l5 -5t10 -14t11 -23.5t2.5 -32.5t-10.5 -41.5zM704 361q-23 0 -37.5 6.5t-20.5 20t-8 24t-2 26.5q0 82 60 82q34 0 50 -24t16 -44l0.5 -7t0 -11t-1 -12.5
t-2 -14t-4 -13.5t-7 -13t-10.5 -10t-14.5 -7.5t-19.5 -2.5z" />
    <glyph glyph-name="renzheng1" unicode="&#xe67f;" 
d="M148 49v485h693v-174q24 -13 43 -32v227q0 9 -6 15.5t-15 6.5h-737q-9 0 -15 -6.5t-6 -15.5v-528q0 -9 6 -15t15 -6h402q-15 20 -26 43h-354v0zM458 436h-253q-8 0 -14 -6t-6 -14.5t6 -14.5t14 -6h253q9 0 15 6t6 14.5t-6 14.5t-15 6zM458 312h-253q-8 0 -14 -6t-6 -14.5
t6 -14.5t14 -6h253q9 0 15 6t6 14.5t-6 14.5t-15 6zM458 188h-253q-8 0 -14 -6t-6 -14.5t6 -14.5t14 -6h253q9 0 15 6t6 14.5t-6 14.5t-15 6zM719.5 348q-81.5 0 -138.5 -57t-57 -138t57 -138.5t138.5 -57.5t138.5 57.5t57 138.5t-57 138t-138.5 57zM706 38q-8 -8 -19 -8
t-19 8l-90 88q-7 8 -7.5 19t7.5 19t19 8t19 -7l71 -70l133 133q8 8 19 8t19 -8t8 -19t-8 -19z" />
    <glyph glyph-name="zhifubao" unicode="&#xe654;" 
d="M1024 111v504q0 81 -58 138.5t-139 57.5h-630q-81 0 -139 -57.5t-58 -138.5v-630q0 -82 58 -139.5t139 -57.5h630q72 0 126.5 46t67.5 116q-283 122 -397 176q-71 -86 -147.5 -129.5t-177.5 -43.5q-105 0 -169 56.5t-55 137.5q2 24 9.5 46t26.5 47t46.5 42t74.5 26t107 3
q23 -2 43 -4.5t40 -6.5t32.5 -7t33.5 -9.5t30.5 -9.5t35 -11.5t35.5 -11.5q35 64 57 139h-398v40h197v70h-240v44h240v102q0 2 1 4.5t6 7t13 4.5h98v-118h256v-44h-256v-70h209q-29 -116 -85 -213q27 -10 111 -36.5t155 -48l71 -21.5v0v0zM284 20q-36 0 -65 7.5t-46.5 19
t-30.5 26t-17.5 29.5t-7 28.5t0.5 23.5q7 34 42.5 62.5t92.5 28.5q131 0 284 -75q-55 -72 -120 -111t-133 -39v0z" />
    <glyph glyph-name="serve" unicode="&#xe60f;" 
d="M807 828zM204 751l-204 98v-509l5 -3q4 -2 9.5 -4t17.5 1.5t19 18.5l162 353l0.5 1l1.5 3t1.5 4.5t1 5.5t0.5 6t-1 6.5t-2.5 6.5t-4 6t-6.5 6zM775 673q-19 -3 -53 3t-58 14l-25 7q-8 5 -30.5 9t-41.5 5l-18 2q-24 1 -55.5 -8.5t-51.5 -19.5l-19 -11h-176l-26 -55h117
q-14 -17 -22 -38t-9 -34l-2 -12q1 -28 -4 -51.5t-10 -32.5l-6 -9q-7 -23 7 -37t32 -17l18 -3q31 5 54 20t34 30.5t18 33t8 26t1 10.5q10 18 23.5 28t26 11t23 0t17.5 -3l6 -3l323 -294q12 -11 13.5 -25.5t-2.5 -23.5l-4 -8q-7 -13 -19.5 -17.5t-21.5 -2.5l-9 2l-229 169
q-18 5 -25 -2.5t-5 -17.5l2 -10l222 -168q7 -10 7 -21t-4 -17l-3 -7q-6 -9 -16 -12t-17 0l-8 2l-200 148q-17 1 -23 -7t-3 -17l2 -9l169 -127q22 -24 7 -46q-16 -25 -42 -15l-159 117q-17 2 -24 -5t-5 -15l2 -9l107 -84q-1 -21 -13 -28t-23.5 -4.5t-11.5 3.5l-28 22
q-3 10 -12 17t-14 8t-9 1v0l-31 25q0 10 -4.5 20.5t-9.5 16.5l-5 5q-7 9 -20 12t-22 2l-9 -2q-1 4 -5 7.5t-8 5.5l-3 2q1 14 -3.5 25.5t-8.5 16.5l-5 5q-10 11 -23.5 15.5t-23.5 2.5l-9 -1q0 2 -3 5t-5 6l-3 2q3 19 1 31.5t-6 19.5l-4 6q-8 15 -25 20t-30 3l-14 -2l-77 102
l-22 -49l65 -87l-48 -69q-5 -23 -3 -37.5t7 -20.5l5 -7q26 -25 46 -22.5t34 12.5t13 12q-13 -25 -10 -42t9 -26t7 -9q24 -22 44 -19t32.5 12t12.5 12q-24 -46 2 -72q27 -27 49 -19.5t35.5 21.5t13.5 17q-4 -7 -6 -13.5t-2.5 -12t0.5 -11t2.5 -9.5t3.5 -8t4 -7t4 -5l3 -3
l1 -1q26 -19 46 -9t31.5 24t11.5 17q9 -9 23 -13t23 -3l10 1q21 4 35.5 16.5t18 21t3.5 10.5q55 -38 96 -10q4 2 4 3q14 10 21.5 25t8.5 24v10q22 -4 39.5 2t24 12t6.5 7q12 10 17.5 26t4.5 26v11q27 1 46 13t27 28q15 31 12 55t-13 39l-11 15l25 60zM816 750
q-1 -1 -2.5 -1.5t-5.5 -4t-5.5 -7.5t-2.5 -11t4 -15q3 -3 45.5 -93t83 -178l40.5 -88q1 -1 2 -2.5t5 -6t7.5 -6.5t10 -3.5t12.5 2.5l14 7v514z" />
    <glyph glyph-name="fenxiangzhuanqian" unicode="&#xe6b6;" 
d="M299 151h81q1 -30 26 -48t71 -20v179l-65 24q-53 19 -80.5 52.5t-27.5 75.5q0 61 45.5 98t127.5 43v43h64v-43q79 -9 117 -39.5t44 -90.5h-80q-3 28 -22 43t-59 20v-161l56 -21q65 -24 91.5 -56t26.5 -83q0 -64 -46 -105t-128 -50v-42h-64l-1 41q-88 3 -132.5 37
t-44.5 101v2zM477 489q-41 -3 -66 -21t-25 -43q0 -28 20.5 -46t70.5 -31v141zM541 238v-154q44 8 68 27t24 47q0 29 -23 49t-69 31zM507 -195q-97 0 -185.5 38t-153 102t-102.5 152.5t-38 186t38 186t102.5 152.5t153 102t185.5 38t186 -38t153 -102t102 -152.5t38 -186
t-38 -186t-102 -152.5t-153 -102t-186 -38zM507.5 709q-115.5 0 -213.5 -57t-155.5 -155t-57.5 -213.5t57.5 -213.5t155.5 -155t213.5 -57t213.5 57t155 155t57 213.5t-57 213.5t-155 155t-213.5 57z" />
    <glyph glyph-name="gonggao1" unicode="&#xe610;" 
d="M820 89q-7 -8 10 -74.5t9 -73.5t-74.5 27t-75.5 28q-43 -25 -77 -31t-100 -6q-114 0 -211 56t-153 152t-56 209t56 209t153 152t211 56t211 -56t153 -152t56 -209q0 -80 -30 -155t-82 -132v0zM512 761q-105 0 -194.5 -51.5t-141.5 -140t-52 -193t52 -193.5t141.5 -140.5
t194.5 -51.5q95 0 178 43q13 7 79 -17q29 -11 29 -6q1 2 -1 5q-9 15 -10 48.5t10 48.5q44 53 73.5 125t29.5 138q0 105 -52 193.5t-141.5 140t-194.5 51.5v0zM354 363v26h316v-26h-316v0zM354 467v26h316v-26h-316v0zM354 259v26h316v-26h-316v0z" />
    <glyph glyph-name="baidu1" unicode="&#xe611;" 
d="M512 -128q-104 0 -199 40q-92 39 -162.5 109.5t-109.5 162.5q-40 95 -40 199t40 199q39 92 109.5 162.5t162.5 109.5q95 40 199 40t199 -40q91 -39 162 -109.5t110 -162.5q40 -95 40 -199t-40 -199q-39 -92 -110 -162.5t-162 -109.5q-95 -40 -199 -40v0zM512 859
q-97 0 -185 -37q-86 -36 -152 -102t-102 -152q-37 -88 -37 -185t37 -185q36 -86 102 -151.5t152 -102.5q88 -37 185 -37t185 37q86 37 151.5 102.5t101.5 151.5q38 88 38 185t-38 185q-36 86 -101.5 152t-151.5 102q-88 37 -185 37v0zM512 859zM275 384q24 5 39.5 20t22 30
t8.5 36.5t1.5 31t-1.5 21.5q-4 30 -32.5 60.5t-64.5 27.5q-19 -2 -34 -13t-23 -26t-13 -29.5t-6 -25.5l-2 -10q-5 -24 4 -55.5t36 -53.5t65 -14v0zM364 211q-9 -24 -3 -41q4 -15 14 -24t17 -11l8 -1h44v107h-47q-14 -5 -22.5 -14t-10.5 -16v0zM430 551q34 0 58.5 34.5
t24.5 83.5t-24.5 84t-59 35t-58.5 -35t-24 -84t24 -83.5t59 -34.5v0zM628 543q42 -5 72 29.5t37 78.5q6 36 -18 72.5t-57 44.5q-31 7 -65 -31t-38 -75q-5 -47 10.5 -80t58.5 -39v0zM779 251q-11 8 -28.5 22.5t-57.5 55t-65 75.5q-27 42 -60.5 59.5t-63.5 12t-55 -22
t-39 -39.5q-16 -27 -38.5 -51t-41 -39.5t-19.5 -16.5q-1 -2 -15 -12.5t-27.5 -23t-29 -34.5t-20 -46t0.5 -57q6 -30 20 -51.5t27.5 -31t29 -15t21.5 -6t9 -0.5v0q61 -6 133 10q36 7 65.5 6t48.5 -5l18 -5q4 -1 10 -3t24 -5.5t35.5 -5t40 0t41 8t35.5 21t26 36.5q13 30 15 58
t-4 46t-14 32t-15 20l-7 7v0zM494 91h-109q-21 4 -37.5 15.5t-22 18.5t-7.5 13q-15 35 -9 75q9 29 28.5 46.5t34.5 20.5l15 3h58v70h49v-262v0zM695 92h-124q-22 5 -34.5 17.5t-14.5 19t-2 10.5v137l51 1v-124q1 -5 6 -9t9 -5l4 -1h51v138h54v-184v0zM872 460
q0 10 -4.5 24.5t-14.5 31.5t-29.5 28t-44.5 11q-84 0 -84 -115q0 -18 1 -30t6.5 -28t15 -26t28 -17t44.5 -7q15 1 27 4.5t20.5 10.5t14.5 14t9.5 17.5t6 18.5t3.5 19.5t1 17v15.5v11v0zM872 460z" />
    <glyph glyph-name="paixingbang1" unicode="&#xe612;" 
d="M129 30h768v-29h-768v29zM128 397h29v-395h-29v395zM331 397h29v-395h-29v395zM360 383h-232v16q0 2 0.5 4t5.5 5.5t13 3.5h195q8 0 12.5 -3.5t4.5 -6.5l1 -4v-15zM665 561h29v-559h-29v559zM868 561h29v-559h-29v559zM897 547h-232v16q0 2 0.5 4t5.5 5.5t14 3.5h195
q8 0 12 -3.5t5 -7.5v-3v-15zM395 752h29v-750h-29v750zM601 752h26v-750h-26v750zM627 738h-232v16q0 2 0.5 4t5.5 5.5t14 3.5h195q8 0 12 -3.5t5 -6.5v-4v-15z" />
    <glyph glyph-name="svg46" unicode="&#xe634;" 
d="M538 -162q-93 0 -178 36t-146.5 97.5t-98 146.5t-36.5 178t36.5 178t98 146.5t146.5 98t178 36.5q165 0 292 -105q12 -10 2 -22.5t-23 -1.5q-118 97 -271 97q-116 0 -214.5 -57t-155.5 -155.5t-57 -214t57 -214t155.5 -155.5t214 -57t214 57t155.5 155.5t57 213.5
q0 101 -44 191q-3 6 -1 12t8 9t12 1t9 -8q48 -96 48 -205q0 -93 -36 -178t-97.5 -146.5t-146.5 -97.5t-178 -36zM694 437h-141q-4 0 -7 -3t-3 -7.5t3 -7.5t7 -3h141q5 0 8 3t3 7.5t-3 7.5t-8 3v0v0zM694 384h-141q-4 0 -7 -3t-3 -7.5t3 -7.5t7 -3h141q5 0 8 3t3 7.5t-3 7.5
t-8 3v0v0zM602 321q0 4 -3 7t-8 3h-38q-4 0 -7 -3t-3 -7.5t3 -7.5t7 -3h38q5 0 8 3t3 8v0v0zM412 305q-3 -4 -8 -7q-7 -5 -17 -7q-9 -2 -18 -6q-9 -3 -15.5 -8t-7.5 -15q-3 -17 -1.5 -28.5t4.5 -13.5q1 -1 7.5 -2.5t15.5 -2.5q8 -1 19 -3q10 -1 22 -2t22 -1q10 -1 18 -1
t18 1q10 0 22 1q13 1 23 3q6 0 12 1v75q-2 1 -4 1q-8 2 -15 5t-11 7t-6 8t-2.5 8t0.5 8q1 7 4 10q3 2 9 7q2 1 3.5 4.5t3.5 7.5l2 8q3 1 5 3t4 5.5t2 8.5q1 5 0.5 8t-1.5 4q-1 3 -3 4q0 11 -2 22q-1 9 -4 19.5t-10 18.5q-3 4 -8.5 8t-12 6.5t-14.5 4.5t-15 2q-6 0 -13 -1
t-13.5 -3.5t-12.5 -7.5t-11 -12q-6 -8 -9 -18t-4 -18q-1 -10 -1 -21q-2 -2 -3 -5t-1.5 -7t0.5 -8q2 -5 4 -7.5t3 -3.5l4 -2q1 -4 3 -8q1 -4 3 -7q1 -4 3 -5q5 -4 9 -8q3 -3 4 -10v-7.5t-1 -6.5q-2 -4 -5 -6v0v0zM324 186q-10 1 -17 9t-7 19v265q0 11 8 18.5t19 7.5h401
q11 0 19.5 -7.5t8.5 -18.5v-165q3 -2 13.5 -8t13.5 -9v199q0 14 -15 24.5t-31 10.5h-427q-15 0 -26 -13.5t-11 -29.5v-284q0 -14 10 -28.5t23 -15.5h229q-1 2 -4 26h-207v0v0zM677 90zM539 157h-233q-15 1 -25.5 16t-10.5 31v284q0 17 12 31.5t28 14.5h427q18 0 33.5 -11.5
t15.5 -26.5v-208l-5 7q-4 3 -15 10q-9 4 -12 7h-1v166q0 10 -7.5 17t-17.5 7h-401q-10 0 -17 -7t-7 -17v-265q0 -9 6 -16t16 -8h209v-2q0 -3 1 -7q1 -15 3 -19zM310 528q-13 0 -23 -13t-10 -27v-284q0 -13 9 -26t21 -15h224q-1 5 -3 16v2.5v1.5h-204q-12 1 -19.5 10t-7.5 20
v265q0 13 8.5 21.5t21.5 8.5h401q13 0 22.5 -8.5t9.5 -21.5v-162q2 -2 9 -6t11 -6v192q0 13 -14 22.5t-29 9.5h-427zM452.5 205q-8.5 0 -18.5 1q-9 0 -21 1t-22 2q-11 2 -20 3t-15 3q-7 1 -9 3q-4 3 -5 15q-2 12 1 29q1 12 9 18q7 5 16 8.5t18 5.5t16 7q5 3 8 6t4 5.5t1 5.5
v7q-1 5 -4 8q-4 4 -8 7q-3 3 -4.5 7t-3.5 7q-1 4 -2 7q-1 1 -3 2t-4 4t-4 8t-1.5 9.5t2.5 7.5q1 3 3 5q0 10 1 20q1 8 4 19t9 19q5 8 12 13t14 7q6 3 13 4q16 2 30 -1q8 -2 14.5 -4.5t12.5 -7t9 -8.5q7 -9 11 -20q3 -10 4 -20q2 -10 2 -20q1 -2 2.5 -4t2 -5.5t0.5 -8.5
q-1 -6 -3 -10t-5 -6q-2 -2 -4 -3q-1 -2 -3 -7q-1 -4 -3 -8t-5 -6q-5 -4 -8 -7q-2 -2 -3 -7q-1 -4 -1 -8q1 -3 2.5 -6.5t5.5 -7t11 -6.5q6 -2 14 -5q3 0 4 -1h2v-80l-2 -1q-6 -1 -13 -1q-11 -2 -23 -3t-22 -1q-10 -1 -18.5 -1zM453 474q-6 0 -12.5 -1t-12.5 -3.5t-12 -7.5
q-6 -4 -11 -11t-8 -17q-3 -9 -4 -18q-1 -10 -1 -20v-1l-1 -1q-2 -2 -2.5 -4.5t-1.5 -5.5q0 -3 1 -7q2 -4 3.5 -6t2.5 -3t3 -2h1l1 -2q1 -3 3 -8q0 -3 2 -7q2 -2 3 -4q5 -4 9 -7q4 -5 5 -12v-8q0 -4 -1.5 -8t-4.5 -7.5t-9 -7.5q-8 -5 -18 -7l-18 -6q-8 -2 -14 -7t-7 -13
q-2 -17 -1 -28q1 -9 3 -11q1 -1 6 -2q6 -1 15 -3q9 -1 19.5 -2t22.5 -2t21 -2h17.5h18.5q9 1 22 2q12 1 23 2q4 0 9 1v70h-0.5h-1.5q-8 2 -15 5q-8 3 -12.5 7.5t-7 9t-2.5 9.5q0 4 1 9q1 8 5 11q3 3 8 7l4 4q1 4 2 7q2 4 3 8l1 2h1q2 1 4 3q2 1 3.5 4t1.5 8q1 4 0 6
q0 3 -1 4.5t-2 1.5l-2 1v2q0 11 -1 21t-4 19q-3 10 -10 18q-3 4 -8 7.5t-11 6t-13.5 4.5t-14.5 2zM591 307h-38q-5 0 -9 4t-4 9.5t4 10t9 4.5h38q6 0 10 -4t4 -10t-4 -10t-10 -4zM553 328q-7 0 -7 -7.5t7 -7.5h38q8 0 8 7.5t-8 7.5h-38zM694 360h-141q-5 0 -9 4t-4 9.5
t4 9.5t9 4h141q6 0 10 -4t4 -9.5t-4 -9.5t-10 -4zM553 381q-7 0 -7 -7.5t7 -7.5h141q8 0 8 7.5t-8 7.5h-141zM694 412h-141q-5 0 -9 4t-4 10t4 10t9 4h141q6 0 10 -4t4 -10t-4 -10t-10 -4zM553 434q-7 0 -7 -7.5t7 -7.5h141q8 0 8 7.5t-8 7.5h-141zM682 304q-47 0 -80 -33
t-33 -79t33 -79t80 -33t80 33t33 79t-33 79t-80 33zM681 122q-10 -11 -21 0l-49 47q-10 11 0.5 21.5t21.5 -0.5l38 -37l72 71q11 11 22 0.5t0 -21.5z" />
    <glyph glyph-name="svg47" unicode="&#xe635;" 
d="M538 -157q-93 0 -178 36.5t-146.5 98t-98 146.5t-36.5 178t36.5 178t98 146.5t146.5 98t178 36.5q165 0 292 -105q12 -10 2 -22.5t-23 -2.5q-118 98 -271 98q-116 0 -214.5 -57.5t-155.5 -155.5t-57 -214t57 -214t155.5 -155.5t214 -57.5t214 57.5t155.5 155.5t57 214
q0 101 -44 191q-3 6 -1 12t8 9t12 1t9 -8q48 -96 48 -205q0 -93 -36 -178t-97.5 -146.5t-146.5 -98t-178 -36.5zM722 288q-47 0 -80 -33t-33 -79t33 -79t80 -33t80 33t33 79t-33 79t-80 33zM721 106q-10 -11 -21 0l-49 47q-10 11 0.5 21.5t21.5 -0.5l38 -37l72 71
q11 11 22 0.5t0 -21.5zM580 172h-229l123 108l21 -18q17 -15 42.5 -15t43.5 15l20 18l18 -16q11 11 23 19l-20 18l123 106v-99q15 -2 29 -7v120q0 16 -11.5 27.5t-27.5 11.5h-394q-16 0 -28 -11.5t-12 -27.5v-238q0 -16 12 -27t28 -11h240q-2 14 -2 20q0 1 0.5 3.5t0.5 3.5z
M725 432l-157 -137q-20 -18 -30 -18t-31 18l-157 137h375zM331 192v215l122 -106z" />
    <glyph glyph-name="svg48" unicode="&#xe636;" 
d="M539 -162q-93 0 -178 36t-146.5 97.5t-97.5 146.5t-36 178.5t36 178t97.5 146t146.5 98t178 36.5q165 0 292 -105q12 -10 2 -22t-22 -2q-118 97 -272 97q-115 0 -213.5 -57t-155.5 -155.5t-57 -214t57 -214t155.5 -155.5t214 -57t214 57t155.5 155.5t57 213.5
q0 101 -45 191q-3 6 -1 12t8 9t12.5 1t9.5 -8q48 -96 48 -205q0 -93 -36.5 -178t-98 -146.5t-146.5 -97.5t-178 -36zM702 312q-47 0 -80 -33t-33 -79t33 -79t80 -33t80 33t33 79t-33 79t-80 33zM701 130q-10 -11 -21 0l-49 47q-10 11 0.5 21.5t21.5 -0.5l38 -37l72 71
q11 11 22 0.5t0 -21.5zM504 118h71v-32h-71v32zM410 60v83h162q-5 15 -7 33h-155v296h258v-141q16 5 33 6v193q0 14 -10 23.5t-23 9.5h-257q-14 0 -23.5 -9.5t-9.5 -23.5v-470q0 -13 9.5 -23t23.5 -10h257q22 0 30 22q-26 2 -46 11h-242zM410 530h1h257v-26h-258v26z" />
    <glyph glyph-name="taoxiaopu" unicode="&#xe73b;" 
d="M64 711v-288v0v-4v-4q0 -53 37.5 -90t90.5 -37t90.5 37t37.5 90v8v0v291q0 10 -6.5 16.5t-16.5 6.5h-202q-13 0 -22 -7t-9 -19zM384 710v-287v0v-4.5v-4.5q0 -53 37.5 -90t90.5 -37t90.5 37t37.5 90v9v0v291q0 9 -6.5 16t-16.5 7h-202q-13 0 -22 -7.5t-9 -19.5zM705 710
v-287h1q0 -2 -0.5 -4.5t-0.5 -4.5q0 -53 37.5 -90t90.5 -37t90.5 37t37.5 90v9v0v291q0 9 -6.5 16t-15.5 7h-203q-13 0 -22 -7.5t-9 -19.5zM800 32h-544q-26 0 -45 19t-19 45v96q0 13 9.5 22.5t22.5 9.5t22.5 -9.5t9.5 -22.5v-96h544v96q0 13 9.5 22.5t22.5 9.5t22.5 -9.5
t9.5 -22.5v-96q0 -26 -19 -45t-45 -19z" />
    <glyph glyph-name="icon12fuben" unicode="&#xe680;" 
d="M347 159q0 38 8 75h-275v-97h268q-1 12 -1 22zM583 492v25v1h-503v-96h381q54 49 122 70zM418 375h-338v-96h287q18 52 51 96zM417 -55h-337v-96h438h11q-66 34 -112 96zM354 90h-274v-96h307q-24 45 -33 96zM670.5 467q-119.5 0 -204 -90.5t-84.5 -217.5t84.5 -217
t204 -90t203.5 90t84 217t-84 217.5t-203.5 90.5zM670.5 -94q-98.5 0 -168 74t-69.5 179t69.5 179.5t168 74.5t168 -74.5t69.5 -179.5t-69.5 -179t-168 -74zM670.5 359q-77.5 0 -132.5 -58.5t-55 -141t55 -141t132.5 -58.5t132 58.5t54.5 141t-54.5 141t-132 58.5zM689 33
v-43h-38v39q-39 2 -66 18l12 48q31 -18 64 -18q17 0 27.5 7t10.5 19q0 11 -10 19.5t-32 16.5q-34 12 -51.5 29.5t-17.5 45.5t17 48t48 26v39h38v-36q30 -1 56 -14l-11 -46q-29 14 -56 14q-33 0 -33 -24q0 -9 10.5 -17t36.5 -18q34 -13 49 -31t15 -46.5t-18 -49.5t-51 -26z
M609.5 533q44.5 0 75.5 33.5t31 81t-31 80.5t-75.5 33t-75.5 -33t-31 -80.5t31 -81t75.5 -33.5zM609.5 742q36.5 0 62 -28t25.5 -66.5t-25.5 -66.5t-62 -28t-62.5 28t-26 66.5t26 66.5t62.5 28zM609.5 573q28.5 0 49 22t20.5 52.5t-20.5 52.5t-49 22t-49 -22t-20.5 -52.5
t20.5 -52.5t49 -22zM604 640q-25 9 -25 28q0 22 24 27v15h14v-14q11 0 21 -5l-4 -17q-11 5 -21 5q-12 0 -12 -8q0 -7 17 -13q24 -9 24 -29q0 -24 -26 -28v-16h-14v14q-14 1 -24 7l4 18q12 -7 24 -7q14 0 14 10q0 7 -16 13zM785.5 464q31.5 0 54 24t22.5 57.5t-22.5 57.5
t-54 24t-54 -24t-22.5 -57.5t22.5 -57.5t54 -24zM785 613q26 0 44.5 -19.5t18.5 -47.5t-18.5 -47.5t-44.5 -19.5t-44 19.5t-18 47.5t18 47.5t44 19.5zM785.5 493q20.5 0 35 15.5t14.5 37.5t-14.5 37.5t-35 15.5t-35 -15.5t-14.5 -37.5t14.5 -37.5t35 -15.5zM782 540
q-18 7 -18 20q0 16 17 20v10h10v-9q8 -1 15 -4l-3 -12q-8 4 -15 4q-9 0 -9 -7q0 -4 13 -9q17 -6 17 -21q0 -16 -19 -20v-11h-10v10q-10 1 -17 5l3 13q8 -5 17 -5q10 0 10 7q0 5 -11 9z" />
    <glyph glyph-name="jifen2" unicode="&#xe65b;" horiz-adv-x="1071" 
d="M500 812q-10 0 -22 -0.5t-19.5 -8.5t-7.5 -19.5t9 -19t20 -7.5v0q12 1 20 1q105 0 200 -39.5t163.5 -106t109.5 -158.5t41 -193q0 -126 -61 -234.5t-165 -176.5q-10 -7 -12 -18t4 -20q8 -12 23 -12q9 0 16 5q116 75 183.5 195.5t67.5 260.5q0 112 -45 214t-121.5 176
t-182 117.5t-221.5 43.5zM526 284h3h1h126q6 0 6 6v133q0 4 -7 6h-127q-6 0 -6 -8v-131v-1q-1 -3 0 -4t4 -1zM483.5 722q-98.5 0 -188 -37t-154 -99.5t-103 -149t-38.5 -181.5t38.5 -181.5t103 -149t154 -99.5t188 -37t188 37t154 99.5t103 149t38.5 181.5t-38.5 181.5
t-103 149t-154 99.5t-188 37zM393 179q-3 4 -8 10v-166v-1q-3 -28 -36 -31v0h-1q-35 3 -35 32v119q-10 -25 -22 -43v0q-14 -19 -33 -19q-8 0 -17 4l-1 1q-29 15 -11 49v0q49 78 78 182h-51q-32 0 -32 36v0q3 34 36 36v0h53v46q-9 -2 -21 -3h-1h-21q-6 -1 -10 -1
q-31 0 -36 27v1v0q0 35 38 43v0h18q79 9 118 18h1h8q29 0 37 -28l1 -1v-1q2 -33 -33 -40q-11 -3 -18 -5v0h-9v-56h35q20 -2 27 -19v80q-2 27 10 40t36 12h187q31 1 45 -14q12 -13 11 -38v-190q1 -24 -10 -37q-10 -10 -30 -10h-7h-201h-3v0q-18 0 -27 10q-12 12 -11 37v75
q-7 -18 -28 -18h-34v-9q7 -9 12 -16q44 -55 51 -64v-1q18 -32 -5 -54v-1q-11 -8 -22 -8q-15 0 -28 16v0zM568 146q-40 -73 -103 -140v0q-16 -13 -31 -13v0q-15 0 -29 10v0v1q-24 26 4 53q46 46 90 125v0q14 23 34 23q9 0 19 -5h1q32 -21 15 -54zM738 9v0h-1q-7 -3 -14 -3v0
q-18 0 -30 21q-48 79 -83 125q-10 14 -8 26q2 13 18 24v0q25 15 52 -7l1 -1v0q47 -60 85 -136v0q10 -31 -20 -49z" />
    <glyph glyph-name="shoucang2" unicode="&#xe681;" horiz-adv-x="1025" 
d="M1021 420q-6 18 -20 29.5t-32 14.5l-276 40l-124 250q-8 17 -23.5 26.5t-33.5 9.5t-33.5 -9.5t-23.5 -26.5l-124 -250l-276 -40q-18 -3 -32 -14.5t-20 -29.5q-12 -37 16 -65l200 -195l-47 -275q-7 -40 25 -63q17 -12 38 -12q16 0 30 7l247 130l247 -130q14 -7 30 -7
q21 0 38 12q32 23 25 63l-47 275l200 195q28 28 16 65zM736 182l53 -308l-277 145l-277 -145l53 308l-224 219l310 45l138 280l138 -280l310 -45zM627 414l-115 233l-115 -233l-258 -38l187 -182l-18 -102q-1 -3 -1 -6q0 -9 6.5 -15t14.5 -6t14 5t8 12v0l21 127l-140 137
l194 29l87 176l87 -176l69 -11h2h1v0h1h1q9 0 15 6.5t6 14.5q0 9 -5.5 15t-13.5 7zM778 349l15 -3l-140 -137l33 -193l-174 91l-210 -111q-14 -5 -14 -19q0 -9 6.5 -15.5t15.5 -6.5q5 0 10 3v0l192 101l230 -121l-44 256l187 182l-99 14q-2 1 -5 1q-9 0 -15 -6.5t-6 -14.5
t5 -14t13 -7z" />
    <glyph glyph-name="duanxin" unicode="&#xe613;" 
d="M880 704h-736q-33 0 -56.5 -23.5t-23.5 -56.5v-480q0 -33 23.5 -56.5t56.5 -23.5h736q33 0 56.5 23.5t23.5 56.5v480q0 33 -23.5 56.5t-56.5 23.5zM928 144q0 -20 -14 -34t-34 -14h-736q-20 0 -34 14t-14 34v480q0 20 14 34t34 14h736q20 0 34 -14t14 -34v-480zM807 538
l-295 -217l-295 217q-12 10 -21.5 -3t3.5 -22l304 -224q0 -1 0.5 -1h0.5q1 -1 2 -1q3 -2 6 -2v0v0q3 0 6 2q1 0 2 1h0.5t0.5 1l304 224q13 9 4 22q-4 5 -10.5 6t-11.5 -3z" />
    <glyph glyph-name="yulan" unicode="&#xe64c;" 
d="M877 555q-31 42 -78 89q-48 48 -90 79q-52 38 -82 38h-446q-30 0 -51 -21t-21 -51v-778q0 -30 21 -51t51 -21h662q30 0 51 21t21 51v562q0 30 -38 82v0zM758 604q38 -39 65 -74h-138v139q35 -27 73 -65v0v0zM858 -89q0 -6 -4.5 -10t-10.5 -4h-662q-6 0 -10.5 4t-4.5 10
v778q0 6 4.5 10t10.5 4h446v-201q0 -12 8.5 -20.5t20.5 -8.5h202v-562v0zM764 8l-163 162q44 55 44 125q0 83 -58.5 141.5t-141.5 58.5t-141.5 -58.5t-58.5 -141.5t58.5 -141.5t141.5 -58.5q66 0 111 32l164 -163q11 -11 22 0l22 21q11 12 0 23v0zM445 164q-54 0 -92.5 38.5
t-38.5 92.5t38.5 92t92.5 38t92.5 -38t38.5 -92t-38.5 -92.5t-92.5 -38.5v0zM445 164z" />
    <glyph glyph-name="zhishu" unicode="&#xe614;" 
d="M512 788q82 0 157 -32q72 -31 128 -87t87 -128q32 -75 32 -157t-32 -157q-31 -72 -87 -128t-128 -87q-75 -32 -157 -32t-157 32q-72 31 -128 87t-87 128q-32 75 -32 157t32 157q31 72 87 128t128 87q75 32 157 32zM512 833q-91 0 -174 -35.5t-143.5 -96t-96 -143.5
t-35.5 -174t35.5 -174t96 -143.5t143.5 -96t174 -35.5t174 35.5t143.5 96t96 143.5t35.5 174t-35.5 174t-96 143.5t-143.5 96t-174 35.5v0zM450 189q-26 0 -42 36q-7 15 -18 53q-11 37 -17 51q-7 17 -12 21q-3 -1 -8.5 -5t-16 -17t-22.5 -33q-18 -33 -30 -65
q-4 -9 -12.5 -13t-17 -0.5t-12.5 12t0 17.5q13 35 33 70q44 79 86 79q31 0 51 -41q8 -18 21 -63q9 -29 13 -40q1 -4 3 -7q5 10 11 27q8 22 27 81q12 37 19.5 59.5t17.5 49t18 41.5t17.5 28.5t19.5 19.5t21 6q17 0 31.5 -7.5t26.5 -23.5t18.5 -27.5t16.5 -30.5q10 -21 14 -28
q8 7 19 22q9 13 15 25q4 9 13 12t17.5 -1.5t11.5 -13t-2 -17.5q-8 -17 -20 -34q-29 -40 -57 -40q-19 0 -34 22q-6 9 -18 33q-9 18 -15 28.5t-16 22.5t-19 13q-12 -8 -32 -56q-14 -33 -40 -116q-22 -70 -32 -95q-11 -26 -21.5 -40.5t-26.5 -14.5z" />
    <glyph glyph-name="fenxiang" unicode="&#xe615;" 
d="M934 -38h-844v844h338v84h-422v-1012h1012v422h-84v-338zM639 890v-84h193l-464 -464l60 -60l506 507v-278h84v379h-379zM934 805l-1 1h1v-1z" />
    <glyph glyph-name="yuanxing" unicode="&#xe668;" 
d="M512 300zM0 300q0 139 68.5 257t186.5 186.5t257 68.5t257 -68.5t186.5 -186.5t68.5 -257t-68.5 -257t-186.5 -186.5t-257 -68.5t-257 68.5t-186.5 186.5t-68.5 257z" />
    <glyph glyph-name="zhuye" unicode="&#xe667;" 
d="M403 105q0 -11 -8 -19t-19 -8t-19 8t-8 19v143q0 36 25 60.5t61 24.5h153q35 0 60 -24.5t25 -60.5v-227q0 -41 -29 -69.5t-70 -28.5h-274q-48 0 -82 34t-34 82v277h-96q-11 0 -19 8t-8 19q0 14 11 22l424 351q8 6 18 6t17 -7l420 -351q8 -7 9 -18.5t-6 -19.5
q-8 -10 -20 -10v0h-96v-322q0 -29 -21 -50t-50 -21h-7q-11 0 -19 7.5t-8 19t8 19t19 7.5h7q7 0 12 5.5t5 12.5v349q0 11 8 19t19 8h49l-347 290l-350 -290h48q11 0 18.5 -8t7.5 -19v-304q0 -26 18.5 -44.5t44.5 -18.5h274q19 0 32 13.5t13 31.5v227q0 13 -9 22.5t-22 9.5
h-153q-13 0 -22.5 -9.5t-9.5 -22.5v-143z" />
    <glyph glyph-name="ren" unicode="&#xe752;" horiz-adv-x="1025" 
d="M512 780q-126 0 -236 -62q-111 -63 -177.5 -174.5t-66.5 -243.5v0q0 -98 38 -186.5t102.5 -153t153 -102.5t186.5 -38t187 38t153 102.5t102 153t38 186.5t-38 186.5t-102 153t-153 102.5t-187 38zM512 -120q-114 0 -211 56.5t-153 153t-56 210.5t56 210.5t153 153
t211 56.5t211 -56.5t153 -153t56 -210.5t-56 -210.5t-153 -153t-211 -56.5zM584 285q32 20 51 53.5t19 72.5q0 61 -43 104t-103.5 43t-103.5 -43t-43 -104q0 -39 19 -72.5t51 -53.5q-64 -24 -103.5 -80t-39.5 -126q0 -8 5 -13.5t13 -5.5t13 5.5t5 13.5q0 76 54 130t130 54
t129.5 -54t53.5 -130q0 -8 5.5 -13.5t13 -5.5t13 5.5t5.5 13.5q0 70 -40 126t-104 80zM398 411q0 46 32 78t77.5 32t78 -32t32.5 -78t-32.5 -78.5t-78 -32.5t-77.5 32.5t-32 78.5z" />
    <glyph glyph-name="duigou" unicode="&#xe650;" 
d="M499 -33l-362 374l92 75l210 -166q38 46 85 96t115.5 115.5t157 134.5t181.5 126l22 -52q-114 -106 -222 -244.5t-177 -255.5t-102 -203v0v0zM961 405q12 -52 12 -105q0 -94 -36.5 -179.5t-98 -147t-147 -98t-179.5 -36.5t-179.5 36.5t-147 98t-98 147t-36.5 179.5
t36.5 179.5t98 147t147 98t179.5 36.5q91 0 175 -34v54q-84 31 -175 31q-104 0 -199 -40q-92 -39 -163 -110t-110 -163q-40 -95 -40 -199t40 -199q39 -92 110 -163t163 -110q95 -40 199 -40t199 40q92 39 163 110t110 163q40 95 40 199q0 53 -11 105h-52v0zM961 405
q12 -52 12 -105q0 -94 -36.5 -179.5t-98 -147t-147 -98t-179.5 -36.5t-179.5 36.5t-147 98t-98 147t-36.5 179.5t36.5 179.5t98 147t147 98t179.5 36.5q91 0 175 -34v54q-84 31 -175 31q-104 0 -199 -40q-92 -39 -163 -110t-110 -163q-40 -95 -40 -199t40 -199
q39 -92 110 -163t163 -110q95 -40 199 -40t199 40q92 39 163 110t110 163q40 95 40 199q0 53 -11 105h-52v0zM961 405q12 -52 12 -105q0 -94 -36.5 -179.5t-98 -147t-147 -98t-179.5 -36.5t-179.5 36.5t-147 98t-98 147t-36.5 179.5t36.5 179.5t98 147t147 98t179.5 36.5
q91 0 175 -34v54q-84 31 -175 31q-104 0 -199 -40q-92 -39 -163 -110t-110 -163q-40 -95 -40 -199t40 -199q39 -92 110 -163t163 -110q95 -40 199 -40t199 40q92 39 163 110t110 163q40 95 40 199q0 53 -11 105h-52v0z" />
    <glyph glyph-name="shuaxin3" unicode="&#xe6b4;" 
d="M751 539q-45 48 -107 75t-132 27q-92 0 -171 -45.5t-124.5 -124.5t-45.5 -171.5t45.5 -171t124.5 -124.5t171 -46q117 0 208.5 73t120.5 183h-90q-26 -75 -91.5 -122.5t-147.5 -47.5q-105 0 -180.5 75t-75.5 180.5t75.5 181t180.5 75.5q103 0 180 -77l-137 -137h299v299z
" />
    <glyph glyph-name="jifen3" unicode="&#xe660;" 
d="M604 426q-21 18 -39 26.5t-45 8.5q-32 0 -51 -17t-19 -43q0 -25 19.5 -42.5t47.5 -29t56 -24.5t47.5 -38t19.5 -61q0 -42 -28 -69.5t-76 -33.5v-59h-37v59q-66 6 -115 46l24 30q51 -40 105 -40q38 0 58 17t20 47q0 28 -19.5 47.5t-47.5 32t-56 25.5t-47.5 35.5
t-19.5 55.5q0 39 27 65.5t71 32.5v59h37v-59q52 -5 94 -44zM512 731q117 0 216 -58t157 -157t58 -216t-58 -216t-157 -157t-216 -58t-216 58t-157 157t-58 216t58 216t157 157t216 58zM512 769q-95 0 -182 -37t-150 -100t-100 -150t-37 -182t37 -182t100 -150t150 -100
t182 -37t182 37t150 100t100 150t37 182t-37 182t-100 150t-150 100t-182 37v0zM857 468zM780 575zM857 468q-3 8 -11 10.5t-15.5 -1t-10.5 -11.5t1 -15q35 -71 35 -151q0 -93 -46.5 -172.5t-125.5 -125.5t-172 -46q-8 0 -14 -5.5t-6 -14t6 -14.5t14 -6q104 0 192.5 51.5
t140 140t51.5 192.5q0 89 -39 168zM512 644q140 0 240 -98q6 -6 14 -6t14 6t6 14.5t-6 14.5q-54 53 -123 81t-145 28q-8 0 -14 -6t-6 -14.5t6 -14t14 -5.5zM378 -17q-95 41 -152.5 127t-57.5 190q0 100 54.5 185t146.5 127q7 4 10 12t-0.5 15.5t-11.5 10.5t-15 -1
q-102 -47 -163 -142t-61 -207q0 -116 64 -212.5t171 -141.5q3 -1 8 -1q13 0 18 12q3 8 0 15.5t-11 10.5z" />
    <glyph glyph-name="iconfontarrowdown" unicode="&#xe658;" 
d="M217 532l295 -336l294 336l152 12l-446 -510l-447 510z" />
    <glyph glyph-name="iconfontarrowup" unicode="&#xe659;" 
d="M805 46l-294 336l-294 -336l-153 -12l447 510l446 -510l-152 12v0z" />
    <glyph glyph-name="wodedingdan10" unicode="&#xe616;" 
d="M512 -128q-104 0 -199 40.5t-163.5 109t-109 163.5t-40.5 199t40.5 199t109 163.5t163.5 109t199 40.5t199 -40.5t163.5 -109t109 -163.5t40.5 -199t-40.5 -199t-109 -163.5t-163.5 -109t-199 -40.5v0v0v0zM512 838q-92 0 -176 -36t-145 -97t-97 -145t-36 -176t36 -176
t97 -145t145 -97t176 -36t176 36t145 97t97 145t36 176t-36 176t-97 145t-145 97t-176 36v0v0v0zM271 224q-6 11 -1.5 23t15.5 17l224 75v315q0 13 9 22t21.5 9t21 -9t8.5 -22v-332v-2v-1q1 -21 -18 -29l-240 -81q-12 -5 -23.5 -1t-16.5 16v0v0v0z" />
    <glyph glyph-name="4" unicode="&#xe686;" 
d="M512 -147q-91 0 -174 35.5t-143 95.5t-95.5 143t-35.5 174t35.5 174t95.5 143t143 95.5t174 35.5t174 -35.5t143 -95.5t95.5 -143t35.5 -174t-35.5 -174t-95.5 -143t-143 -95.5t-174 -35.5zM512 -91q106 0 196.5 52.5t143 143t52.5 196.5t-52.5 196.5t-143 143
t-196.5 52.5t-196.5 -52.5t-143 -143t-52.5 -196.5t52.5 -196.5t143 -143t196.5 -52.5zM512.5 161q-69.5 0 -119 49t-49.5 118.5t49.5 119t119 49.5t118.5 -49.5t49 -119t-49 -118.5t-118.5 -49zM512.5 217q46.5 0 79 32.5t32.5 79t-32.5 79.5t-79 33t-79.5 -33t-33 -79.5
t33 -79t79.5 -32.5zM316 -39h-56q0 104 74 178t178.5 74t178 -74t73.5 -178h-56q0 81 -57.5 138.5t-138.5 57.5t-138.5 -57.5t-57.5 -138.5v0z" />
    <glyph glyph-name="my" unicode="&#xe78b;" 
d="M160 -32q-18 0 -27 15q-7 11 -4 24t14 20q17 11 43 25.5t88.5 38.5t109.5 27v0v18q-91 37 -145.5 124.5t-54.5 195.5q0 93 44 172.5t118.5 125.5t163 46t163.5 -46t118.5 -125.5t43.5 -172.5q0 -108 -52.5 -194t-142.5 -124v-21q47 -4 109 -28t88.5 -38t42.5 -24
q12 -6 15 -19t-3.5 -24.5t-19.5 -14.5t-24 3q-131 76 -215 82h-25q-13 0 -22.5 9t-9.5 23v74q0 23 22 30q79 27 126 99.5t47 166.5q0 116 -76.5 198t-184.5 82t-185 -82t-77 -198q0 -94 49 -168t129 -100q22 -7 22 -30v-72q0 -14 -9.5 -23t-22.5 -9h-31q-38 -2 -93.5 -24.5
t-77.5 -35t-37 -21.5q-8 -5 -17 -5z" />
    <glyph glyph-name="myfill" unicode="&#xe78c;" 
d="M877 24q-18 9 -47 23t-93 38t-97 27v23q89 39 142 125.5t53 194.5q0 94 -43.5 173.5t-118.5 125.5t-163.5 46t-163 -46t-118.5 -125.5t-44 -173.5q0 -110 54 -197t146 -124v-22h-1q-31 -2 -94.5 -26t-93 -38.5t-48.5 -23.5v0l-5.5 -5.5t-9 -12t-4.5 -14.5q2 -10 10 -17
t19 -7h266h178h265q11 0 19.5 6.5t10.5 16.5q2 14 -19 33z" />
    <glyph glyph-name="tuijian" unicode="&#xe617;" 
d="M851 -67h-688q-43 0 -73.5 30.5t-30.5 73.5v689q0 43 30.5 73.5t73.5 30.5h688q43 0 73.5 -30.5t30.5 -73.5v-689q0 -43 -30.5 -73.5t-73.5 -30.5zM163 790q-27 0 -46 -19t-19 -45v-689q0 -26 19 -45t46 -19h688q27 0 46 19t19 45v689q0 26 -19 45t-46 19h-688v0z
M842 477v49h-411q9 16 17 32h-56l-16 -32h-192v-49h164q-78 -130 -186 -217q15 -19 33 -47q54 45 102 104v-278h54v349q28 42 54 89h437zM670 724h-54v-63h-195v62h-53v-62h-186v-50h186v-43h53v43h195v-51h54v51h182v50h-182v63zM667 280l137 86v48h-363v-48h276l-103 -66
v-34h-211v-49h211v-85q0 -40 -36 -40q-54 0 -118 6q5 -30 9 -57q78 -1 122 -1q76 0 76 83v94h185v49h-185v14z" />
    <glyph glyph-name="shuaxin4" unicode="&#xe6ba;" horiz-adv-x="1025" 
d="M1018 435l-185 234q-16 19 -40 19t-39 -19l-185 -234q-10 -13 -2.5 -28.5t24.5 -15.5h73q-1 -32 -1.5 -47t-3 -48t-6.5 -51.5t-12.5 -50t-20 -52.5t-29.5 -50.5t-41.5 -52t-55.5 -48t-71 -47.5q-5 -3 -3 -8t7 -5q94 15 171 44t127 63.5t88 77.5t57.5 81t32 79t15.5 66
t4 48h75q17 1 24.5 16.5t-3.5 28.5zM434 377h-73q1 32 1.5 47t3 48t6.5 51.5t12.5 50t20 52.5t29.5 50.5t41.5 52t55.5 48t71 47.5q5 3 3 8t-7 5q-94 -15 -171 -44t-127 -63.5t-88 -78t-57.5 -81t-32 -79t-15.5 -66.5t-4 -47h-75q-17 0 -25 -15.5t3 -28.5l185 -234
q16 -19 40 -19t39 19l186 234q10 12 2.5 27.5t-24.5 15.5z" />
    <glyph glyph-name="zhuye1" unicode="&#xe664;" 
d="M39 423l457 465q8 8 19.5 8t19.5 -8v0q8 -9 8 -20.5t-8 -19.5l-456 -465q-8 -9 -19.5 -9t-20.5 9v0q-8 8 -8 20t8 20v0zM952 383l-456 465q-8 8 -8 19.5t8 20.5v0q8 8 19.5 8t19.5 -8l456 -465q8 -8 8 -20t-8 -20v0q-8 -9 -19.5 -9t-19.5 9v0zM59 431h102q12 0 20 -8.5
t8 -19.5v0q0 -12 -8 -20.5t-20 -8.5h-102q-11 0 -19.5 8.5t-8.5 20.5v0q0 11 8.5 19.5t19.5 8.5v0zM869 431h103q11 0 19 -8.5t8 -19.5v0q0 -12 -8 -20.5t-19 -8.5h-103q-11 0 -19 8.5t-8 20.5v0q0 11 8 19.5t19 8.5v0zM134 -100v503q0 11 8 19.5t19 8.5v0q12 0 20 -8.5
t8 -19.5v-503q0 -11 -8 -19.5t-20 -8.5v0q-11 0 -19 8.5t-8 19.5v0zM161 -71h494q11 0 19 -8.5t8 -20.5v0q0 -11 -8 -19.5t-19 -8.5h-494q-11 0 -19 8.5t-8 19.5v0q0 12 8 20.5t19 8.5v0zM842 -100v503q0 11 8 19.5t19 8.5v0q12 0 20 -8.5t8 -19.5v-503q0 -11 -8 -19.5
t-20 -8.5v0q-11 0 -19 8.5t-8 19.5v0zM627 -100v503q0 11 8 19.5t20 8.5v0q11 0 19 -8.5t8 -19.5v-503q0 -11 -8 -19.5t-19 -8.5v0q-12 0 -20 8.5t-8 19.5v0zM375 431h280q11 0 19 -8.5t8 -19.5v0q0 -12 -8 -20.5t-19 -8.5h-280q-11 0 -19.5 8.5t-8.5 20.5v0q0 11 8.5 19.5
t19.5 8.5v0zM403 403v-285q0 -12 -8 -20t-20 -8v0q-11 0 -19.5 8t-8.5 20v285q0 11 8.5 19.5t19.5 8.5v0q12 0 20 -8.5t8 -19.5v0z" />
    <glyph glyph-name="huiyuantequanpingjiajifen" unicode="&#xe709;" 
d="M699 712q-13 13 -30.5 13t-30 -12.5t-12.5 -30.5t13 -30l40 -55h-348q-18 0 -30.5 -12.5t-12.5 -30t12.5 -30t30.5 -12.5h426q39 0 48.5 9t-5.5 33zM693 469h-319q-18 0 -28.5 -1t-18.5 -5t-7 -12t11 -21l124 -161q13 -13 30.5 -13t30 12.5t12.5 30t-13 30.5l-41 55h219
q18 0 30.5 12.5t12.5 30t-12.5 30t-30.5 12.5zM1013 568q-6 12 -15 31t-36 68t-51 86.5t-52 68t-47 30.5h-535q-19 0 -46.5 -29t-53.5 -71t-49 -83.5t-37.5 -71l-14.5 -29.5q-3 -5 -6.5 -13.5t-4.5 -31t11 -40.5q21 -32 120 -163.5t212 -267.5t136.5 -136t137.5 137.5
t211.5 267t119.5 162.5q11 17 11 38t-6 34zM544 24q-69 73 -210 255.5t-184 246.5l3 6q36 76 77 144.5t64 90.5h500q24 -22 65 -90.5t77 -144.5q0 -1 1 -3t1 -4q-49 -71 -187.5 -250t-206.5 -251z" />
    <glyph glyph-name="zhuye2" unicode="&#xe665;" 
d="M397 -71v245q0 48 34 81.5t81.5 33.5t81.5 -33.5t34 -81.5v-245h42v245q0 65 -46.5 111t-111.5 46t-111 -46t-46 -111v-245h42zM397 -59h-157q-18 0 -30 12.5t-12 29.5v398h-42v-398q0 -34 24.5 -59t59.5 -25h157v42zM827 381v-398q0 -17 -12.5 -29.5t-29.5 -12.5h-157
v-42h157q35 0 59.5 25t24.5 59v398h-42zM106 381l377 377q12 12 29.5 12t29.5 -12l377 -377h59l-406 406q-25 25 -59.5 25t-59.5 -25l-406 -406h59zM978 381h-149v-42h191zM196 381h-149l-42 -42h191v42z" />
    <glyph glyph-name="appluntan" unicode="&#xe800;" 
d="M173 -124zM424 643q95 0 175 -51.5t120 -138.5q56 -122 9 -248q-23 -60 -66.5 -107t-102.5 -74q-64 -30 -135 -30q-18 0 -32 -12q-33 -31 -72 -57l1 52q1 32 -28 45q-55 24 -97 66t-67 96q-56 122 -9 248q23 61 66.5 108t102.5 74q64 29 135 29zM424 691q-81 0 -155 -34
q-69 -31 -119.5 -86.5t-75 -121.5t-22.5 -141t33 -144q29 -64 78 -111.5t110 -74.5l-3 -139q76 36 154 107q81 0 155 34q68 31 118.5 86.5t75.5 121.5t23 141t-34 144q-46 101 -138.5 159.5t-199.5 58.5v0zM915 -44v0q-89 0 -193 34q-9 3 -13.5 12t-1.5 18.5t12 14t18 1.5
q67 -22 138 -29l-42 87q-7 15 3 27q88 99 88 231q0 94 -46.5 174.5t-127 127t-174.5 46.5q-10 0 -17 7t-7 17t7 17t17 7q107 0 198.5 -53t144.5 -144.5t53 -198.5q0 -141 -89 -251l54 -111q5 -12 -2 -23t-20 -11zM272 305.5q0 -19.5 -13.5 -33t-33 -13.5t-33 13.5t-13.5 33
t13.5 33t33 13.5t33 -13.5t13.5 -33zM470 305.5q0 -19.5 -13.5 -33t-32.5 -13.5t-33 13.5t-14 33t14 33t33 13.5t32.5 -13.5t13.5 -33zM669 305.5q0 -19.5 -14 -33t-33 -13.5t-32.5 13.5t-13.5 33t13.5 33t32.5 13.5t33 -13.5t14 -33z" />
    <glyph glyph-name="icon13" unicode="&#xe67e;" 
d="M173 384h176v-153h-176v153zM173 24h166q10 0 10 11v142h-176v-153zM386 24h166q10 0 10 11v142h-176v-153zM386 231h176v143q0 10 -10 10h-166v-153zM600 177h173v-153h-173v153zM173 587h176v-149h-176v149zM393 655q-3 -17 -2 -43q0 -15 7 -44l8 -23q9 -20 24 -42
q7 -10 22 -24q16 -14 38.5 -27.5t41.5 -17.5q37 -8 64 -7q45 1 82 22l14 8q4 3 6 5t4 3l3 1.5t12 10.5q10 8 23 25q27 33 34 66q6 29 7 46q2 25 -7 62l-8 24q-10 21 -19 33.5t-27 31.5q-4 4 -6 5q-2 2 -4 3.5t-4 2.5q-33 27 -66 34l-25 6q-7 1 -21 2q-27 1 -54 -6
q-14 -3 -16 -4q-29 -11 -44 -21l-25 -20q-27 -23 -42 -54q-13 -25 -15 -37zM666 409l74 -141q5 -12 18 -16l7 -1q7 -1 12 1q6 2 33.5 19.5t32.5 22.5t7 12l2 6q1 14 -6 23q-3 4 -15 18l-81 104q0 1 -1 2t-2 3q0 -1 -9 -8q-27 -24 -61 -40q-1 0 -3.5 -1t-4.5 -2t-3 -2z
M586 622zM459 622.5q0 52.5 37 89.5t89.5 37t90 -37t37.5 -89.5t-37.5 -90t-90 -37.5t-89.5 37.5t-37 90z" />
    <glyph glyph-name="jifen4" unicode="&#xe65c;" 
d="M715 569h-124l50 50q25 25 0 49.5t-50 0.5l-83 -91l-91 90q-24 25 -49 0q-25 -24 0 -49l58 -50h-116q-36 0 -59.5 -25t-23.5 -58q0 -31 17.5 -53.5t48.5 -28.5v-273q0 -13 10.5 -23t22.5 -10h389q12 0 22.5 10t10.5 23v265q26 6 46 29.5t20 53.5q-6 37 -34 63.5t-65 26.5
zM310 462q-12 0 -18.5 5t-6.5 11q0 8 7 16.5t18 8.5h174v-41h-174v0zM674 156h-323v240h133v-141q0 -12 10 -22.5t22.5 -10.5t23 10.5t10.5 22.5v141h124v-240zM715 462h-165v41h173q8 0 16.5 -6.5t8.5 -17.5q-16 -17 -33 -17zM511.5 882q-101.5 0 -194 -40t-159.5 -107
t-107 -159.5t-40 -194t40 -194t107 -159.5t159.5 -107t194 -40t194 40t159.5 107t107 159.5t40 194t-40 194t-107 160t-159.5 107t-194 39.5zM505 -62q-126 0 -226 57.5t-155 158.5t-55 228q0 126 57 227.5t158.5 158.5t228.5 57t228.5 -57t159 -158.5t57.5 -227.5
t-59.5 -228t-163 -159t-230.5 -57zM505 -81z" />
    <glyph glyph-name="tuijian1" unicode="&#xe618;" 
d="M677 896h165v-495h-165v495zM677 896h165v-495h-165v495zM182 896h165v-495h-165v495zM182 896h165v-495h-165v495zM925 357l-311 7l-56 160h-92l-56 -160l-311 -7l248 -187l-90 -298l255 178l255 -178l-90 298zM594 896h-164v-372h36l46 131l46 -131l36 1v371z" />
    <glyph glyph-name="caifutong" unicode="&#xe655;" 
d="M839 860h-673q-58 0 -98.5 -41t-40.5 -99v-673q0 -58 40.5 -98.5t98.5 -40.5h673q58 0 99 40.5t41 98.5v673q0 58 -41 99t-99 41zM449 125q-4 0 -11 1.5t-26 7t-35 13.5t-33.5 23.5t-26.5 34.5q-3 -3 -13 -13.5t-16.5 -16t-20.5 -15.5t-28 -15.5t-36.5 -11.5t-48.5 -8
l8 68q4 0 12 0.5t28 6.5t36.5 17.5t32.5 38t21 63.5l25 209h77l-29 -214l-3 -21q-6 -47 26 -76q24 -21 67 -24zM394 262l46 312h-150l-44 -312h-74q11 89 43 318q5 17 14.5 29.5t18.5 18.5t19 9.5t14.5 4.5t5.5 1h235l-51 -381h-77zM477 138l12 72q3 0 8 0.5t16 10.5t17 30
l89 249h80l-97 -264v0q-1 -5 -3.5 -12t-12.5 -25t-22.5 -31t-35.5 -22.5t-51 -7.5zM846 530h-39l-45 -341q0 -3 -1 -6.5t-5 -13.5t-9.5 -17.5t-17 -13.5t-25.5 -6h-97q4 5 11.5 15t27 40t36 59.5t32.5 68.5t23 72q9 49 5 80.5t-14 45.5l-10 15h-185l37 69h157l7 46h87
l-5 -46h36z" />
    <glyph glyph-name="jia" unicode="&#xe64d;" 
d="M832 320h-256v-256q0 -26 -19 -45t-45 -19q-27 0 -45.5 18.5t-18.5 45.5v256h-256q-27 0 -45.5 18.5t-18.5 45.5t18.5 45.5t45.5 18.5h256v256q0 27 18.5 45.5t45.5 18.5q26 0 45 -19t19 -45v-256h256q26 0 45 -19t19 -45t-19 -45t-45 -19z" />
    <glyph glyph-name="jian" unicode="&#xe64f;" 
d="M192 448h640q26 0 45 -19t19 -45t-19 -45t-45 -19h-640q-27 0 -45.5 18.5t-18.5 45.5t18.5 45.5t45.5 18.5z" />
    <glyph glyph-name="jifen5" unicode="&#xe65d;" 
d="M665 673l-96 -184q-11 -18 -20.5 -35t-14 -27t-10 -20.5t-6.5 -12.5v0q-42 84 -152 279h-96l178 -299h-140v-63h166v-89h-166v-70h166v-134h83v134h159v70h-159v89h159v63h-140l178 299h-89zM207 203h12q13 0 26 12q5 10 1 22t-14 17q-59 29 -93 65.5t-34 74.5
q0 36 25 70q11 21 -6 38q-25 0 -32 -13q-44 -45 -44 -102t41 -104t118 -80zM894 495q-19 -19 0 -38q31 -42 31 -70q0 -23 -12 -45.5t-24 -34t-34 -28.5q-7 -7 -25.5 -17.5t-24.5 -14.5q-22 -11 -13 -38q3 -6 7 -9t7.5 -3.5t10.5 -0.5h13q8 6 29 15.5t28 16.5q96 67 96 153
q0 57 -45 102q-17 26 -44 12zM143 495q38 -25 57 -31q10 -5 22 -1t16.5 13.5t0.5 21.5t-13 16q-38 13 -51 26q-21 17 -33.5 28.5t-24.5 33.5t-12 46q0 53 56.5 98.5t150 72t200.5 26.5t200.5 -26.5t150 -72t56.5 -98.5q0 -24 -12 -46t-24.5 -33.5t-33.5 -28.5
q-7 -7 -26 -17.5t-25 -14.5q-22 -11 -13 -38q4 -6 7.5 -9t7 -3.5t11.5 -0.5h13q7 5 28.5 15t28.5 17q95 67 95 153q0 71 -61 129.5t-167.5 91.5t-235.5 33t-235.5 -32.5t-167.5 -89.5t-61 -126q0 -86 95 -153zM913 215q-9 -4 -10.5 -16t3.5 -22q19 -28 19 -57
q0 -38 -32.5 -75t-94.5 -65q-114 -57 -286 -57t-286 57q-59 30 -93 66.5t-34 73.5q0 13 12 51q6 9 4.5 21.5t-10.5 16.5q-9 5 -21.5 4t-16.5 -10q-26 -51 -26 -83q0 -56 40 -103t113 -81q138 -64 305 -64q187 0 306 64q74 32 113 81t39 103q0 49 -25 83q4 14 -3 18t-16 -6z
" />
    <glyph glyph-name="chakanjilu" unicode="&#xe685;" horiz-adv-x="1098" 
d="M920 374l-310 30l-32 331q-10 13 -20 -1l-31 -323l-36 4q-27 0 -46.5 -15t-19.5 -35v-1q0 -21 19.5 -36t46.5 -15l27 3l-1 -9q0 -27 15 -45.5t36 -18.5v0q21 0 36 18.5t15 45.5l-2 18l302 29q14 10 1 20v0v0zM229 624q73 84 129 123t138 57v86q-106 -19 -199 -81.5
t-150 -155.5l-74 74l-73 -329l274 130l-75 58l30 38v0zM583 895l-31 1v-77q0 3 31 2q79 -1 150 -30t121.5 -75t88.5 -103.5t56.5 -116.5t18.5 -112q1 -98 -35.5 -181t-97.5 -137.5t-138.5 -85t-160.5 -30.5q-77 0 -153 34.5t-134 90t-96.5 129t-43.5 148.5l-82 -22
q13 -127 84 -232t183 -165.5t242 -60.5q105 0 199.5 40.5t162.5 109t108.5 163.5t40.5 199.5t-41 199t-110 163t-164 108.5t-199 40v0v0zM583 895z" />
    <glyph glyph-name="jifengonggong" unicode="&#xe661;" 
d="M736 772q-79 46 -168.5 56.5t-171.5 -11.5t-154 -76t-118 -133t-56.5 -168.5t11.5 -171.5t76 -154t133 -118t168.5 -56.5t171.5 11.5t154 76t118 133t56.5 168.5t-11.5 171.5t-76 154t-133 118zM893 282q-51 -23 -79.5 -72t-22.5 -105q-56 6 -105 -22.5t-71 -79.5
q-46 33 -102.5 33t-101.5 -33q-23 51 -72 79.5t-105 22.5q6 56 -22.5 105t-79.5 72q33 45 33 101.5t-33 102.5q51 22 79.5 71t22.5 105q56 -6 105 22.5t72 79.5q45 -33 101.5 -33t102.5 33q22 -51 71 -79.5t105 -22.5q-6 -56 22.5 -105t79.5 -71q-33 -46 -33 -102.5
t33 -101.5zM746 446q-19 13 -36 31t-33 39q-15 21 -28 44q-13 24 -22 47q-6 14 -15.5 20t-24.5 1q-13 -6 -17.5 -16t2.5 -31q15 -34 34.5 -66t42.5 -60q-5 1 -9 1h-10h-223q47 55 79 124h1q6 14 4 25.5t-13 18.5v0q-14 8 -26.5 2t-17.5 -18q-11 -23 -25 -47q-14 -22 -31 -45
q-16 -21 -35 -41q-19 -19 -40 -34h1q-13 -8 -15 -20t5 -23q19 -26 49 -3q6 5 8 7l8 6q3 -7 10 -9.5t16 -2.5h58q-6 -37 -15 -67q-9 -28 -23 -50t-34 -39q-19 -16 -43 -30v0q-14 -7 -19.5 -18.5t3.5 -26.5v0q8 -14 17.5 -16t27.5 7q36 21 62 44t43 51.5t27 63.5q10 36 16 81
h111q4 0 6.5 -1.5t1.5 -8.5q-3 -58 -3 -71q-2 -25 -4 -70q-1 -12 -7 -19q-7 -6 -21 -6q-13 0 -28 4q-17 4 -38 12h1q-7 3 -14 3.5t-13.5 -2t-11.5 -7.5t-7 -12q-4 -17 4 -26t25 -14q8 -4 20 -7l24 -6q12 -2 25 -4q13 -1 22 -1q38 0 57.5 20.5t21.5 64.5l7 153v11q-1 7 -1 10
q13 -13 27 -22q10 -8 17 -11.5t12.5 -3t11 5t9.5 11.5v1q9 13 5 24q-3 11 -19 22z" />
    <glyph glyph-name="qq1" unicode="&#xe691;" 
d="M537 -3v0h-25h-19h-6q-19 0 -26 -6q-38 -38 -127 -38q-53 0 -101 19q-38 19 -38 44q0 27 44 45q15 4 20.5 10t5.5 15q0 25 -6.5 31.5t-16 22.5t-15.5 22q-10 19 -32 19v0q-5 0 -9 -1t-6.5 -2.5l-7.5 -4.5t-9 -5q-19 -19 -25 -19v0q-5 0 -9 14t-4 37q0 32 13 108
q19 57 63 101q13 13 13 32v13q0 28 19 57q6 6 6 19v6q0 114 83 197q73 82 190 82q114 0 197 -82q82 -93 82 -197v-6q0 -13 6 -19q19 -29 19 -57v-13q0 -25 13 -32q44 -44 63 -101q22 -64 13 -108q0 -41 -19 -50q-6 0 -25 18q-13 13 -32 13h-6q-22 0 -32 -19q-6 -19 -32 -44
q-14 -15 -6 -32q0 -6 3 -10t9 -9.5t7 -5.5q44 -18 44 -45q0 -25 -38 -44t-101 -19q-79 0 -127 38q6 0 -4 4q-5 2 -9 2v0v0zM683 -123q95 0 152 38q64 42 64 101q0 35 -19 64q19 0 25 6q54 18 64 95q9 67 -19 152q-16 56 -70 121v0q0 41 -19 88q0 146 -102 248
q-101 101 -247 101t-247 -101q-102 -112 -102 -247q-19 -39 -19 -89v-7q-44 -36 -70 -114q-28 -85 -19 -152q10 -73 64 -95q3 0 12.5 -3t12.5 -3q-19 -29 -19 -64q0 -65 64 -101q57 -38 145 -38q106 0 159 44h32q62 -44 158 -44v0v0z" />
    <glyph glyph-name="paixingbang2" unicode="&#xe619;" 
d="M512 -128q-104 0 -199 40.5t-163.5 109t-109 163.5t-40.5 199t40.5 199t109 163.5t163.5 109t199 40.5t199 -40.5t163.5 -109t109 -163.5t40.5 -199t-40.5 -199t-109 -163.5t-163.5 -109t-199 -40.5zM512 847q-94 0 -180 -36.5t-148 -98.5t-98.5 -148t-36.5 -180
t36.5 -180t98.5 -148t148 -98.5t180 -36.5t180 36.5t148 98.5t98.5 148t36.5 180t-36.5 180t-98.5 148t-148 98.5t-180 36.5zM634 189h-73v341q0 21 -14.5 35t-34.5 14t-34.5 -14t-14.5 -35v-341h-73v0v0v244q0 20 -14 34.5t-34.5 14.5t-34.5 -14.5t-14 -34.5v-244v0h-98
v-49h634v49h-98v439q0 20 -14 34.5t-34.5 14.5t-34.5 -14.5t-14 -34.5v-439z" />
    <glyph glyph-name="shenfenzheng" unicode="&#xe63d;" 
d="M846 746h-669q-53 0 -82 -28.5t-29 -82.5v-502q0 -53 29 -82t82 -29h669q53 0 82.5 28.5t29.5 82.5v502q0 54 -29.5 82.5t-82.5 28.5zM902 133q0 -26 -14.5 -40.5t-41.5 -14.5h-669q-26 0 -40.5 14.5t-14.5 40.5v502q0 27 14.5 41.5t40.5 14.5h669q27 0 41.5 -14.5
t14.5 -41.5v-502zM401 388q19 11 30.5 33t11.5 48q0 37 -21.5 63.5t-51 26.5t-51 -26.5t-21.5 -63.5q0 -27 12 -49.5t32 -32.5q-45 -7 -74.5 -30t-29.5 -53q0 -35 40 -59.5t97 -24.5t97 24.5t40 59.5q0 31 -32 54.5t-79 29.5zM671 285h-64q-13 0 -22.5 -9.5t-9.5 -23
t9.5 -23t22.5 -9.5h64q13 0 22.5 9.5t9.5 23t-9.5 23t-22.5 9.5zM735 549h-128q-13 0 -22.5 -9.5t-9.5 -23.5t9.5 -23.5t22.5 -9.5h128q13 0 22 9.5t9 23.5t-9 23.5t-22 9.5zM671 417h-64q-13 0 -22.5 -9.5t-9.5 -23t9.5 -23.5t22.5 -10h64q13 0 22.5 10t9.5 23.5t-9.5 23
t-22.5 9.5z" />
    <glyph glyph-name="weibo" unicode="&#xe61a;" 
d="M445 221q-76 -3 -129 30t-53 83t53 86.5t129 39.5q77 4 130 -25t53 -79q0 -51 -54 -91.5t-129 -43.5zM660 440q-11 2 -14 6.5t-1 7.5l3 3q2 5 5.5 12t2.5 25t-13 30q-20 15 -46.5 14t-49.5 -9l-23 -9q-22 -7 -24 1.5t4 27.5q0 11 -1.5 19.5t-7.5 18.5t-15.5 15.5t-28 5
t-43.5 -8.5q-24 -9 -49 -25.5t-44 -34.5t-34.5 -34.5t-23.5 -27.5l-8 -11q-23 -30 -34.5 -60.5t-10.5 -45.5v-15q5 -42 27.5 -72.5t58.5 -47.5t71.5 -25.5t76.5 -11.5q82 -6 166 27.5t114 96.5q12 25 12 46.5t-7.5 35t-20 24t-23 15.5t-19.5 7zM459 334q-11 -9 -17 1
q-7 11 4 19q12 10 19 -1q6 -10 -6 -19zM399.5 282.5q-14.5 -1.5 -24.5 5.5t-10 19t9.5 22.5t23.5 11.5q16 2 26 -6t10 -20t-10 -21.5t-24.5 -11zM425 416q-90 -11 -90 -107q0 -3 0.5 -8.5t7.5 -18t19 -18.5q46 -23 86.5 -14t65.5 41q12 15 13 38t-7.5 44t-33.5 34t-61 9z
M709 481q15 0 17 14v2q3 31 -5 52t-22 28.5t-28.5 11t-25.5 1.5l-10 -1q-7 0 -12 -5t-5 -12t5 -11.5t12 -4.5q22 4 34.5 0t17.5 -13.5t6.5 -19.5t0.5 -18l-1 -7q0 -7 4.5 -12t11.5 -5zM697 675q-35 9 -83 0l-1 -0.5l-1 -0.5l-1 -1q-17 -5 -17 -23q0 -10 7 -17t17 -7
q13 1 22 5q7 3 26.5 0.5t48 -17.5t45.5 -43q18 -41 7 -80q-5 -12 -5 -23q0 -10 7 -16t17.5 -6t16 4t7.5 16v0q12 51 8 87t-25.5 62t-45 40t-50.5 20zM512 895q-101 0 -192.5 -39.5t-158 -106t-106 -158t-39.5 -192.5t39.5 -192.5t106 -158t158 -105.5t192.5 -39t192.5 39
t158 105.5t106 158t39.5 192.5t-39.5 192.5t-106 158t-158 106t-192.5 39.5zM511 868q95 0 182 -37t149.5 -100t99.5 -149.5t37 -181.5t-37 -182t-99.5 -149.5t-149.5 -99.5t-182 -37t-181.5 37t-149.5 99.5t-100 149.5t-37 182t37 181.5t100 149.5t149.5 100t181.5 37v0z
" />
    <glyph glyph-name="iconfonticonpay" unicode="&#xe67c;" 
d="M561 726l70 163q-44 -35 -70 -35q-12 0 -28.5 8.5t-27.5 16.5l-11 9q-45 -34 -70 -34q-12 0 -29 8t-28 16l-12 9l72 -161h134zM425 710h138v-49h-138v49zM690 49q-15 15 -23.5 32t-8.5 34v190l14 2l156 29h1q-19 49 -53 98.5t-69.5 85.5t-68.5 65.5t-54 43.5l-21 15h-138
q-7 -3 -17.5 -9.5t-42 -28t-60 -45t-63.5 -61t-60 -76t-42 -89t-17 -101.5t17 -93t45 -68t61 -45.5t66.5 -28.5t61.5 -14.5t45 -6.5l17 -1q62 -5 114 0q0 -2 23.5 2t64 16t76.5 31q-13 11 -24 23zM598 304v-49h-83v-27h83v-49h-83v-60h-63v60h-82v49h82v27h-82v49h58
l-69 141h68l44 -95q9 -18 12 -32q5 15 12 32l46 95h68l-70 -141h59zM974 291l-143 26l-141 -26l-12 -2v-170q0 -15 8 -30.5t21 -29.5t29 -27t33 -22.5t33 -16.5t27 -9l4 -1l3 1q12 2 27.5 9t32 16.5t32 22.5t28 27t20 29.5t7.5 30.5v170zM953 115q0 -11 -6 -22.5t-15.5 -22
t-22 -20t-26 -17t-27 -13t-25.5 -8.5v153h-122v107l120 21l2 -1v-127h122v-50z" />
    <glyph glyph-name="goodsfavor" unicode="&#xe794;" 
d="M608 0h-334q-15 0 -28.5 11.5t-16.5 26.5l-69 416q-2 12 4.5 19.5t18.5 7.5h658q12 0 18.5 -7.5t3.5 -20.5l-21 -130q-2 -13 5.5 -23.5t20.5 -13.5q14 -2 24.5 6t12.5 21l22 130q7 41 -18.5 71.5t-67.5 30.5h-658q-42 0 -67.5 -30.5t-18.5 -71.5l69 -415q7 -39 38 -65.5
t70 -26.5h334q13 0 22.5 9.5t9.5 22.5t-9.5 22.5t-22.5 9.5v0zM254 352.5q0 -26.5 19 -45t45.5 -18.5t45 18.5t18.5 45t-18.5 45.5t-45 19t-45.5 -19t-19 -45.5zM318 321v32v0v-32zM640 352.5q0 -26.5 18.5 -45t45 -18.5t45.5 18.5t19 45t-19 45.5t-45.5 19t-45 -19
t-18.5 -45.5zM704 321v32v0v-32zM288 577q13 0 22.5 9t9.5 23q0 71 57.5 115t132.5 44q72 0 133 -47t61 -113q0 -13 9.5 -22.5t22.5 -9.5t22.5 9.5t9.5 22.5q0 63 -39 116t-98 80.5t-121 27.5q-64 0 -121 -26t-95 -78t-38 -119q0 -14 9.5 -23t22.5 -9zM888 209
q-42 0 -72 -29v0v0q-30 29 -72 29q-43 0 -73.5 -30.5t-30.5 -73.5q0 -41 31 -74l102 -103q22 -22 43 -22t43 22l102 103l2 2q9 12 14 19t10 21.5t5 31.5q0 43 -30.5 73.5t-73.5 30.5zM914 75l-98 -100l-99 100q-13 14 -13 30t11.5 28t28.5 12q16 0 27 -11l23 -22
q8 -8 22 -10q14 1 23 10v0q19 19 21 22q12 11 28 11t28 -12t12 -28q0 -13 -14 -30z" />
    <glyph glyph-name="tianjia" unicode="&#xe64a;" 
d="M800 -97h-576q-53 0 -90.5 37.5t-37.5 90.5v704q0 54 37.5 91t90.5 37h412q18 4 31 -9l250 -249q8 -8 10 -20q1 -5 1 -10v-544q0 -53 -37.5 -90.5t-90.5 -37.5zM672 750v-143h142zM864 543h-224q-13 0 -22.5 9.5t-9.5 22.5v224h-384q-27 0 -45.5 -18.5t-18.5 -45.5v-704
q0 -26 18.5 -45t45.5 -19h576q27 0 45.5 19t18.5 45v512zM704 287h-160v-160q0 -13 -9.5 -22.5t-22.5 -9.5t-22.5 9.5t-9.5 22.5v160h-160q-13 0 -22.5 9.5t-9.5 23t9.5 22.5t22.5 9h160v160q0 14 9.5 23t22.5 9t22.5 -9t9.5 -23v-160h160q13 0 22.5 -9t9.5 -22.5t-9.5 -23
t-22.5 -9.5z" />
    <glyph glyph-name="fenlei" unicode="&#xe629;" 
d="M435 896h-384q-21 0 -36 -15t-15 -36v-384q0 -21 15 -36t36 -15h384q21 0 36 15t15 36v384q0 21 -15 36t-36 15zM435 359h-384q-21 0 -36 -15t-15 -36v-384q0 -21 15 -36t36 -15h384q21 0 36 15t15 36v384q0 21 -15 36t-36 15zM908 25l-4 4q43 55 43 126q0 84 -60 144
t-144.5 60t-144.5 -60t-60 -144.5t60 -144.5t144 -60q71 0 126 43l4 -4l90 -90q8 -8 18.5 -8t18 7.5t7.5 18.5t-8 18zM742.5 1q-63.5 0 -108.5 45t-45 108.5t45 108.5t108.5 45t108.5 -45t45 -108.5t-45 -108.5t-108.5 -45zM973 896h-384q-21 0 -36 -15t-15 -36v-384
q0 -21 15 -36t36 -15h384q21 0 36 15t15 36v384q0 21 -15 36t-36 15z" />
    <glyph glyph-name="shuaxin" unicode="&#xe669;" 
d="M704 568q-65 55 -135.5 81.5t-129.5 27t-120 -16t-103 -38t-81.5 -49t-53 -39t-19.5 -17.5q57 96 119.5 163t120.5 99.5t117 45.5t110.5 6t99 -23.5t84.5 -39t65 -43.5t42 -34t15 -15l122 115v-405h-405zM317 203q50 -44 104.5 -70t103.5 -33t98 -4t91 17t80 31t68 36.5
t51.5 35.5t33.5 27l11 11q-72 -123 -153.5 -198t-154 -97.5t-144 -19.5t-128 28.5t-100.5 54t-68 50t-24 22.5l-124 -115v370h406z" />
    <glyph glyph-name="tongji" unicode="&#xe6b1;" 
d="M512 832q92 0 174 -35.5t142.5 -96t96 -142.5t35.5 -174.5t-35.5 -174.5t-96 -142.5t-142.5 -95.5t-174 -35q-83 0 -156 27.5t-132 76.5l109 233q20 -34 37 -61q14 -24 28.5 -45.5t20.5 -28.5q10 -14 19 -25.5t26 -13.5q20 -2 28.5 8t19.5 26q2 4 10.5 20t19.5 40t26 53
q14 30 29 60q33 71 74 158l102 -55l-42 296l-260 -160l114 -39l-120 -248q-28 45 -48 79q-9 14 -17 27t-14 22l-8 15q3 -8 0 -2.5t-11 15t-17.5 19t-17.5 9.5q-22 0 -31.5 -11t-15.5 -25q-2 -4 -9.5 -21t-20 -42l-27.5 -55l-30 -59q-15 -31 -28 -58.5t-23 -47.5
q-40 56 -61.5 122t-21.5 139q0 92 35 174t95.5 142.5t142.5 96t175 35.5v0zM512 832z" />
    <glyph glyph-name="shalou" unicode="&#xe682;" 
d="M512 896q-212 0 -362 -150t-150 -362t150 -362t362 -150t362 150t150 362t-150 362t-362 150v0zM512 -77q-94 0 -179 36.5t-147 98.5t-98.5 147t-36.5 179t36.5 179t98.5 147t147 98.5t179 36.5t179 -36.5t147 -98.5t98.5 -147t36.5 -179t-36.5 -179t-98.5 -147
t-147 -98.5t-179 -36.5v0zM512 -77zM674 528v54q0 23 15.5 39t38.5 16h35v35h-35h-469v-35h35q23 0 39 -16t16 -39v-54q0 -28 14 -53t37 -38v0q29 -19 29 -53t-29 -53v0q-23 -15 -37 -39t-14 -52v-54q0 -23 -16 -39t-39 -16h-35v-35h504v35h-35q-23 0 -38.5 16t-15.5 39v54
v0q0 28 -14.5 53t-37.5 38v0q-28 19 -28 53t28 53v0q23 13 37.5 38t14.5 53v0zM602 302q1 -1 3 -1q33 -21 33 -61v0v-35h-252v35q0 40 33 61q1 0 2 0.5l1 0.5q44 28 44 80h92q0 -49 44 -80v0zM638 528q0 -21 -9 -35h-234q-9 17 -9 35v54q0 30 -18 55h288q-18 -23 -18 -55
v-54v0zM638 528z" />
    <glyph glyph-name="shouji" unicode="&#xe699;" 
d="M664 121q0 -20 -14 -34t-34 -14h-191q-20 0 -34 14t-14 34v30q0 20 14 34t34 14h191q20 0 34 -14t14 -34v-30zM736 -65h-427q-69 0 -118 50t-49 120v583q0 70 49 120t118 50h427q69 0 118 -50t49 -120v-583q0 -70 -49 -120t-118 -50zM309 796q-44 0 -75 -31.5t-31 -76.5
v-583q0 -45 31 -77t75 -32h427q44 0 75 32t31 77v583q0 45 -31 76.5t-75 31.5h-427z" />
    <glyph glyph-name="dingweijujiao" unicode="&#xe6bd;" 
d="M512 512q-53 0 -90.5 -37.5t-37.5 -90.5t37.5 -90.5t90.5 -37.5t90.5 37.5t37.5 90.5t-37.5 90.5t-90.5 37.5zM512 320q-26 0 -45 19t-19 45t19 45t45 19t45 -19t19 -45t-19 -45t-45 -19zM928 416h-1q-12 153 -121 262t-262 121v1q0 13 -9.5 22.5t-22.5 9.5t-22.5 -9.5
t-9.5 -22.5v-1q-153 -12 -262 -121t-121 -262h-1q-13 0 -22.5 -9.5t-9.5 -22.5t9.5 -22.5t22.5 -9.5h1q12 -153 121 -262t262 -121v-1q0 -13 9.5 -22.5t22.5 -9.5t22.5 9.5t9.5 22.5v1q153 12 262 121t121 262h1q13 0 22.5 9.5t9.5 22.5t-9.5 22.5t-22.5 9.5zM544 33v63
q0 13 -9.5 22.5t-22.5 9.5t-22.5 -9.5t-9.5 -22.5v-63q-127 11 -217.5 101.5t-101.5 217.5h63q13 0 22.5 9.5t9.5 22.5t-9.5 22.5t-22.5 9.5h-63q11 127 101.5 217.5t217.5 101.5v-63q0 -13 9.5 -22.5t22.5 -9.5t22.5 9.5t9.5 22.5v63q127 -11 217.5 -101.5t101.5 -217.5
h-63q-13 0 -22.5 -9.5t-9.5 -22.5t9.5 -22.5t22.5 -9.5h63q-11 -127 -101.5 -217.5t-217.5 -101.5z" />
    <glyph glyph-name="gouwuche1" unicode="&#xe640;" 
d="M898 194h-627v460q0 10 -7 17.5t-17 8.5v1h-19h-46h-39q-18 0 -30.5 -13t-12.5 -30.5t12.5 -30.5t30.5 -13h74v-427q0 -14 11 -22h1q0 -1 3 -2l0.5 -0.5t1 -0.5h1t0.5 -1q5 -1 9 -1h654q11 0 19 8t8 19t-8 19t-19 8zM349 665h216v-177h-216v177zM622 665h217v-177h-217
v177zM349 431h216v-177h-216v177zM622 431h217v-177h-217v177zM594 657v0l-42 191h83zM594 657v0l-165 106l59 58zM594 657v0l106 164l59 -58zM824 24q-4 35 -32.5 57t-62.5 18q-30 -3 -51 -23t-26 -50q-6 -30 10 -57.5t44 -37.5q2 -1 28 -7h7q14 3 15 3q34 8 53.5 35
t14.5 62zM738 -35q-19 0 -33 14t-14 33t13.5 33t33 14t33 -13.5t13.5 -33t-13.5 -33.5t-32.5 -14zM475.5 24.5q-5.5 37.5 -36.5 59t-68 14.5q-31 -7 -51 -32.5t-18 -57.5q2 -27 17.5 -48t40.5 -30q1 0 26 -6h6l4 1q38 3 61.5 32.5t18 67zM389 -35q-19 0 -33 14t-13.5 33
t14 33t32.5 14t33 -14t14 -33t-14 -33t-33 -14z" />
    <glyph glyph-name="qiyeguanli" unicode="&#xe63e;" 
d="M927 13h-652q-58 0 -99 41t-41 98l-1 200q0 6 -4 10.5t-10 4.5h-84q-21 0 -29 19t6 34l348 379q9 10 23.5 10t23.5 -9q23 -24 82 -82q48 -48 77 -78l0.5 -0.5l0.5 -0.5l6.5 6.5l5.5 5.5l45 45l33 34q9 9 23 9v0q13 0 22 -9l307 -309q15 -15 7 -34.5t-29 -19.5h-73
q-8 0 -14 -6t-6 -14v-145q0 -39 -27 -66.5t-66 -27.5h-225v64h225q13 0 21.5 8.5t8.5 21.5v145q0 33 23 57.5t56 25.5l-230 232l-11 -10q-28 -28 -45 -46l-11 -11q52 -51 55 -102q2 -33 -13 -60t-42 -41q-47 -25 -96 -7q-42 15 -60 55q-10 25 -6.5 53t20.5 50q12 15 39 40
q9 8 12 11l-0.5 0.5l-0.5 0.5q-24 25 -77 77l-60 60l-277 -302h12q32 0 54.5 -22.5t23.5 -54.5v-200q0 -32 22.5 -54t54.5 -22h652v-64v0zM569 551l-15 -15q-22 -20 -31 -31q-14 -20 -6 -40q6 -15 22 -20q23 -9 46 4q22 11 20 41q-1 27 -36 61v0zM569 551z" />
    <glyph glyph-name="woyaojubao-copy" unicode="&#xe61b;" 
d="M280 32v397l-33 -32l140 -2l-32 33v-232h65v467l-33 -32h333l-32 32v-109h112l-32 33l-4 -672l32 33h-409l33 -33v94l-163 54l23 -31v0zM215 32v-24l162 -53l-22 31v-103h473l1 32l4 704h-113l33 -33v110h-398v-500h65v264l-205 2v-430v0zM480 676v-341h32v357h-32v-16z
M577 676v-341h32v357h-32v-16zM674 676v-341h33v357h-33v-16z" />
    <glyph glyph-name="biaoxing" unicode="&#xe61c;" 
d="M767 -64q-8 0 -15 4l-242 134l-242 -133q-17 -10 -33.5 1.5t-13.5 31.5l47 285l-196 202q-14 14 -7 32q5 18 24 22l155 26q14 3 24.5 -5t13 -21t-5.5 -23.5t-21 -13.5l-95 -16l165 -170q12 -12 9 -28l-39 -235l200 109q15 9 31 0l199 -110l-38 236q-3 16 9 27l164 169
l-225 34q-17 3 -24 18l-100 213l-100 -212q-5 -12 -17.5 -16.5t-24.5 1t-16.5 18t0.5 24.5l129 274q9 18 29 18v0q21 0 29 -18l121 -259l270 -41q20 -3 26 -21.5t-8 -32.5l-197 -202l46 -285q3 -19 -13 -31q-7 -6 -18 -6z" />
    <glyph glyph-name="dianpu" unicode="&#xe61d;" 
d="M953 543v0.5v1.5q-1 2 -2 5l-75 187q-10 29 -35.5 45.5t-58.5 16.5h-527q-33 0 -57 -16t-34 -44l-80 -191l-1 -4q-9 -28 -9 -56q0 -48 25 -90t68 -65v0v0v0v0q36 -19 83 -19q82 1 134 63q52 -62 134 -62q81 0 133 62q52 -62 134 -62q49 0 85 20q42 23 66.5 64.5
t24.5 89.5q0 28 -8 54zM839 391q-22 -12 -54 -12q-29 0 -54 14t-41 39q-4 9 -8 13q-12 13 -31 13q-20 0 -31 -13q-4 -5 -8 -13q-16 -25 -41 -39t-53 -15q-29 1 -54 15t-41 39q-4 8 -7 12q-11 13 -32 13t-30 -12q-6 -6 -9 -14q-16 -25 -41 -39t-54 -14q-31 0 -53 11v0v0
q-27 15 -43 41.5t-16 57.5q0 19 6 37q0 1 1 3l79 188q7 19 32 19h526q28 -2 34 -21l75 -185q0 -2 1 -4q6 -18 6 -36q-1 -31 -16.5 -57.5t-42.5 -40.5zM863 288q-13 0 -22.5 -9.5t-9.5 -22.5v-174q0 -8 -5.5 -13.5t-12.5 -5.5h-602q-8 0 -13 5.5t-5 12.5v171q0 14 -9.5 23
t-22.5 9v0q-14 0 -23 -9t-9 -23v-171q0 -34 24 -58t58 -24h602q34 1 58 25t24 58v174q0 13 -9.5 22.5t-22.5 9.5zM768 512h-512q-13 0 -22.5 9.5t-9.5 22.5t9.5 22.5t22.5 9.5h512q13 0 22.5 -9.5t9.5 -22.5t-9.5 -22.5t-22.5 -9.5z" />
    <glyph glyph-name="gouwuche2" unicode="&#xe61e;" 
d="M352 64q-26 0 -45 -18.5t-19 -45.5t19 -45.5t45.5 -18.5t45 18.5t18.5 45.5t-18.5 45.5t-45.5 18.5v0zM801 64q-27 0 -45.5 -18.5t-18.5 -45.5t18.5 -45.5t45 -18.5t45.5 18.5t19 45.5t-19 45.5t-45 18.5v0zM864 96h-520q-34 0 -61 24t-31 59l-54 382l-31 179
q-2 11 -11 19.5t-19 8.5h-41q-13 0 -22.5 9.5t-9.5 22.5t9.5 22.5t22.5 9.5h41q35 0 62 -24t31 -59l31 -178l54 -384q2 -11 10.5 -19t18.5 -8h520q13 0 22.5 -9.5t9.5 -22.5t-9.5 -22.5t-22.5 -9.5zM384 224q-12 0 -21.5 8.5t-10.5 21.5t8 23t22 11l434 32q12 0 21 8t10 19
l51 288q2 18 -8 30q-7 7 -16 7h-554q-13 0 -22.5 9t-9.5 22.5t9.5 23t22.5 9.5h554q38 0 63 -29q30 -33 24 -81l-51 -289q-4 -34 -30.5 -57.5t-61.5 -23.5l-431 -32h-1.5h-1.5z" />
    <glyph glyph-name="shezhi" unicode="&#xe61f;" 
d="M512 288q-40 0 -68 28t-28 68t28 68t68 28t68 -28t28 -68t-28 -68t-68 -28zM512 416q-13 0 -22.5 -9.5t-9.5 -22.5t9.5 -22.5t22.5 -9.5t22.5 9.5t9.5 22.5t-9.5 22.5t-22.5 9.5zM631 -64q-16 0 -26 13l-73 101q-20 -2 -40 0l-73 -101q-14 -18 -35 -12q-52 15 -98 41
q-19 10 -16 32l20 124q-15 13 -28 28l-124 -20q-22 -3 -32 16q-26 47 -41 98q-6 22 12 35l101 73q-1 9 -1 20t1 20l-101 73q-18 14 -12 35q15 52 41 98q10 19 32 16l124 -20q13 15 28 28l-20 124q-3 22 17 32q46 26 97 41q22 6 35 -12l73 -101q20 2 40 0l73 101q13 18 35 12
q51 -15 98 -41q19 -10 16 -32l-20 -124q15 -13 28 -27l124 19q22 3 32 -16q26 -46 41 -98q6 -22 -12 -35l-101 -73q1 -9 1 -20t-1 -20l101 -73q18 -13 12 -35q-15 -52 -41 -98q-11 -19 -33 -16l-123 19q-12 -14 -28 -27l20 -124q3 -22 -16 -32q-46 -26 -98 -41q-5 -1 -9 -1z
M337 23q21 -10 44 -18l70 97q11 15 30 13q31 -4 62 0q19 2 30 -13l70 -97q23 8 44 18l-19 119q-3 18 12 30q25 20 44 44q12 15 30 12l118 -19q11 21 18 44l-96 70q-15 11 -13 30q2 16 2 31t-2 31q-2 19 13 30l96 70q-7 23 -18 44l-118 -19q-18 -3 -30 12q-20 25 -44 44
q-14 12 -12 30l19 119q-21 10 -44 18l-70 -97q-11 -15 -30 -13q-31 4 -62 0q-19 -2 -30 13l-70 97q-23 -8 -44 -18l19 -119q2 -18 -12 -30q-24 -19 -44 -44q-12 -14 -30 -12l-119 19q-10 -21 -18 -44l97 -70q15 -11 13 -30q-2 -16 -2 -31t2 -31q2 -19 -13 -30l-97 -70
q8 -23 18 -44l119 19q18 2 30 -12q19 -25 44 -44q15 -12 12 -30z" />
    <glyph glyph-name="shaixuan" unicode="&#xe66a;" 
d="M271 58h707q19 0 32.5 -13.5t13.5 -33t-13.5 -33t-32.5 -13.5h-707q-14 -41 -50 -67t-81 -26q-58 0 -99 41t-41 98.5t41 98.5t99 41q45 0 81 -26t50 -67zM644 431h333q20 0 33.5 -14t13.5 -33t-13.5 -33t-33.5 -14h-333q-15 -41 -51 -67t-81 -26t-81 26t-51 67h-333
q-20 0 -33.5 14t-13.5 33t13.5 33t33.5 14h333q15 41 51 67t81 26t81 -26t51 -67zM753 803h-707q-19 0 -32.5 -13.5t-13.5 -33t13.5 -33t32.5 -13.5h707q14 -41 50 -67t81 -26q58 0 99 41t41 98.5t-41 98.5t-99 41q-45 0 -81 -26t-50 -67zM884.5 710q19.5 0 33 13.5t13.5 33
t-13.5 33t-33 13.5t-33 -13.5t-13.5 -33t13.5 -33t33 -13.5zM512 337q-19 0 -33 14t-14 33t14 33t33 14t33 -14t14 -33t-14 -33t-33 -14zM139.5 -35q19.5 0 33 13.5t13.5 33t-13.5 33t-33 13.5t-33 -13.5t-13.5 -33t13.5 -33t33 -13.5z" />
    <glyph glyph-name="gouxuan" unicode="&#xe651;" 
d="M879 875h-731q-51 0 -87.5 -36.5t-36.5 -87.5v-731q0 -51 36.5 -87.5t87.5 -36.5h731q51 0 87.5 36.5t36.5 87.5v731q0 51 -36.5 87.5t-87.5 36.5zM921 81q0 -43 -30 -73t-73 -30h-609q-43 0 -73 30t-30 73v609q0 43 30 73t73 30h609q43 0 73 -30t30 -73v-609zM482 144
q-21 -21 -50.5 -21t-50.5 21l-228 223q-21 20 -21 49.5t21 49.5t50.5 20t50.5 -20l177 -174l342 335q21 21 50.5 21t50.5 -20.5t21 -49.5t-21 -50l-392 -384v0zM482 144z" />
    <glyph glyph-name="dianhua" unicode="&#xe684;" 
d="M960 487q-21 -29 -44.5 -39.5t-43 -5.5t-38.5 19t-30 26.5t-18 24.5q-8 13 -32 35.5t-59.5 48t-84.5 43.5t-97 18q-56 0 -107 -18t-84.5 -46t-53 -48.5t-29.5 -36.5q-7 -12 -18 -25t-30 -27.5t-38.5 -19.5t-43.5 6t-45 41q-5 6 -9 19.5t-5.5 34.5t1.5 44.5t16 49.5
t33.5 51t56.5 47.5t83.5 39.5t118 27.5t154.5 10.5q85 0 154.5 -10t116.5 -27t83.5 -39t56.5 -46.5t33 -50.5t16 -49.5t1.5 -43.5t-5.5 -34t-9 -20v0zM513 757q-98 0 -173.5 -12.5t-119 -32.5t-71.5 -45.5t-37.5 -50t-10.5 -48t3.5 -39t9.5 -21.5q12 -15 23.5 -18t24.5 7.5
t21 20t23 29.5q5 7 8 10q13 18 34.5 38.5t59.5 48.5t92.5 46t112.5 18v0q49 0 102 -18.5t93 -45t66 -48.5t37 -35l3 -3q15 -19 24 -29t24 -22.5t27 -11t21 16.5q5 7 9.5 22t3 38t-11 47.5t-37.5 49.5t-71 44t-118 31.5t-172 12.5v0zM513 607q62 0 122 -35.5t104 -92
t78.5 -123.5t52 -132t17.5 -115q0 -107 -59.5 -128.5t-314 -21.5t-314.5 21.5t-60 128.5q0 49 18 113.5t52 131.5t78.5 124t104 93t121.5 36v0zM513 9q221 0 272.5 18t51.5 108q0 34 -15 86.5t-45 110.5t-68 108.5t-90 83.5t-105.5 33t-105.5 -33t-90.5 -84t-68 -109
t-45 -110t-15.5 -86q0 -90 51.5 -108t272.5 -18v0zM513 458q52 0 88.5 -36.5t36.5 -88.5t-36.5 -88.5t-88 -36.5t-88 36.5t-36.5 88.5t36.5 88.5t87.5 36.5v0zM513 258q31 0 53 22t22 53t-22 53t-53 22t-53 -22t-22 -53t22 -53t53 -22v0zM513 258z" />
    <glyph glyph-name="touxiang" unicode="&#xe637;" 
d="M512 498zM331 498.5q0 74.5 53 127.5t128 53t128 -53t53 -127.5t-53 -127.5t-128 -53t-128 53t-53 127.5zM803 181q-19 15 -61.5 37.5t-75.5 37.5l-33 15l-82 -150l-11 37l20 48l-45 45l-45 -45l22 -45l-14 -37l-79 153q-127 -57 -169 -91q-23 -19 -46 -76
q61 -71 146.5 -111.5t181.5 -40.5q100 0 187.5 42.5t145.5 118.5q-16 43 -42 62zM512 864q-98 0 -187 -38t-153 -102t-102 -153t-38 -187t38 -187t102 -153t153 -102t187 -38t187 38t153 102t102 153t38 187t-38 187t-102 153t-153 102t-187 38zM512 -67q-92 0 -175.5 35.5
t-144 96t-96 144t-35.5 175.5t35.5 175.5t96 144t144 96t175.5 35.5t175.5 -35.5t144 -96t96 -144t35.5 -175.5t-35.5 -175.5t-96 -144t-144 -96t-175.5 -35.5z" />
    <glyph glyph-name="duigou-copy" unicode="&#xe652;" 
d="M502 148l-265 274l68 55l153 -122q66 79 167 173t228 173l17 -38q-123 -114 -226 -264.5t-142 -250.5v0zM841 469q9 -38 9 -77q0 -92 -45 -170t-123 -123t-170 -45t-170 45t-123 123t-45 169.5t45 169.5t123 123.5t170 45.5q67 0 128 -26v40q-61 23 -128 23
q-76 0 -146 -30q-67 -28 -119 -80t-81 -119q-29 -70 -29 -146.5t29 -145.5q29 -68 81 -120t119 -80q70 -30 146 -30t146 30q67 28 119 80t81 120q29 69 29 146q0 39 -8 77h-38zM841 469q9 -38 9 -77q0 -92 -45 -170t-123 -123t-170 -45t-170 45t-123 123t-45 169.5t45 169.5
t123 123.5t170 45.5q67 0 128 -26v40q-61 23 -128 23q-76 0 -146 -30q-67 -28 -119 -80t-81 -119q-29 -70 -29 -146.5t29 -145.5q29 -68 81 -120t119 -80q70 -30 146 -30t146 30q67 28 119 80t81 120q29 69 29 146q0 39 -8 77h-38zM841 469q9 -38 9 -77q0 -92 -45 -170
t-123 -123t-170 -45t-170 45t-123 123t-45 169.5t45 169.5t123 123.5t170 45.5q67 0 128 -26v40q-61 23 -128 23q-76 0 -146 -30q-67 -28 -119 -80t-81 -119q-29 -70 -29 -146.5t29 -145.5q29 -68 81 -120t119 -80q70 -30 146 -30t146 30q67 28 119 80t81 120q29 69 29 146
q0 39 -8 77h-38z" />
    <glyph glyph-name="woshimaijia" unicode="&#xe620;" 
d="M970 512h-90q-19 129 -121 215t-238.5 86t-238 -86t-120.5 -215h-108q-14 0 -24 -10t-10 -23l172 -452q0 -14 10.5 -24t24.5 -10h570q14 0 24.5 10t10.5 24l172 452q0 13 -10 23t-24 10zM363 127q0 -14 -9.5 -24.5t-23.5 -10.5t-24 10.5t-10 24.5v229q0 14 10 24t24 10
t23.5 -10t9.5 -24v-229zM546 127q0 -14 -10 -24.5t-24 -10.5t-23.5 10.5t-9.5 24.5v229q0 14 9.5 24t23.5 10t24 -10t10 -24v-229zM728 127q0 -14 -9.5 -24.5t-23.5 -10.5t-24 10.5t-10 24.5v229q0 14 10 24t24 10t23.5 -10t9.5 -24v-229zM232 512q18 101 99.5 167.5
t189 66.5t189 -66.5t100.5 -167.5h-578z" />
    <glyph glyph-name="youxiangrenzheng" unicode="&#xe6a8;" horiz-adv-x="1279" 
d="M949 170h-510q-21 0 -36 15.5t-15 37.5v323q0 22 15 37.5t36 15.5h510q21 0 36 -15.5t15 -37.5v-323q0 -22 -15 -37.5t-36 -15.5v0zM935 208l-159 146l-26 -23q-23 -21 -56 -21t-56 21l-26 23l-159 -146h482v0zM426 526v-291l159 148l-159 143v0zM451 561l204 -186
q26 -25 39 -25t39 25l204 186h-486v0zM962 526l-159 -143l159 -148v291v0zM962 526zM694 -128q104 0 199 40.5t163.5 109t109 163.5t40.5 199t-40.5 199t-109 163.5t-163.5 109t-199 40.5t-199 -40.5t-163.5 -109t-109 -163.5t-40.5 -199t40.5 -199t109 -163.5t163.5 -109
t199 -40.5v0v0zM694 832q91 0 174 -35.5t143 -95.5t95.5 -143t35.5 -174t-35.5 -174t-95.5 -143t-143 -95.5t-174 -35.5t-174 35.5t-143 95.5t-95.5 143t-35.5 174t35.5 174t95.5 143t143 95.5t174 35.5v0v0z" />
    <glyph glyph-name="shoujirenzheng" unicode="&#xe6a9;" horiz-adv-x="1274" 
d="M637 -128q-105 0 -199.5 40.5t-163 109t-109 163.5t-40.5 199t40.5 199t109 163.5t163 109t199 40.5t199 -40.5t163 -109t109.5 -163.5t41 -199t-41 -199t-109.5 -163.5t-163 -109t-198.5 -40.5v0zM637 831q-91 0 -174 -35.5t-142.5 -95.5t-95 -142.5t-35.5 -173.5
t35.5 -173.5t95 -142.5t142.5 -95.5t173.5 -35.5t173.5 35.5t142.5 95.5t95 142.5t35.5 173.5t-35.5 173.5t-95 142.5t-142.5 95.5t-173 35.5v0zM806 653.5q17 -16.5 17 -40.5v-500q0 -24 -17 -40.5t-41 -16.5h-269q-24 0 -40.5 16.5t-16.5 40.5v500q0 24 16.5 40.5
t40.5 16.5h269q24 0 41 -16.5zM784 593h-307v-384h307v384zM554 622h154v19h-154v-19zM669 132.5q0 15.5 -11.5 27t-27 11.5t-27 -11.5t-11.5 -27t11.5 -27t27 -11.5t27 11.5t11.5 27z" />
    <glyph glyph-name="49" unicode="&#xe69d;" 
d="M474 454q-13 0 -26 13l-90 128q-11 34 7 51q36 13 45 -12l89 -128q9 -11 6.5 -23t-12.5 -22q-3 0 -9.5 -3.5t-9.5 -3.5zM550.5 454q-12.5 0 -19.5 7q-10 10 -12.5 22t6.5 23l89 128q11 10 23 12.5t22 -6.5q11 -10 13 -22t-6 -23l-90 -128q-13 -13 -25.5 -13zM685 282
h-346q-14 0 -23 8.5t-9 23t9 23.5t23 9h346q14 0 23 -9t9 -23.5t-9 -23t-23 -8.5zM685 429h-346q-14 0 -23 8.5t-9 23t9 23.5t23 9h346q14 0 23 -9t9 -23.5t-9 -23t-23 -8.5zM512 122v0q-14 0 -23 8.5t-9 23.5v288q0 14 9 23t23 9v0q14 0 23 -9t9 -23v-288q0 -14 -10.5 -23
t-21.5 -9zM512 -128h-13q-52 17 -153.5 79.5t-153.5 118.5q-59 69 -87 133.5t-28 135.5v384q0 23 19 32l403 141h19l397 -141q19 -9 19 -32v-371q0 -78 -27 -143t-88 -126q-46 -63 -143 -127t-151 -84h-13zM147 698v-352q0 -57 19.5 -111t76.5 -120q42 -50 124 -100.5
t145 -78.5q56 25 141 78.5t128 100.5q57 66 76.5 120t19.5 111v352l-365 134z" />
    <glyph glyph-name="huidingbu" unicode="&#xe621;" 
d="M512 896q-138 0 -256 -69t-187 -187t-69 -256t69 -256t187 -187t256 -69t256 69t187 187t69 256t-69 256t-187 187t-256 69zM442 0h-39v38h39v-38zM442 64h-39v38h39v-38zM538 -45h-58v51h51v-51h7zM538 32h-58v51h51v-51h7zM608 0h-38v38h38v-38zM608 64h-38v38h38v-38z
M608 442v-301h-205v301h-147l256 307l256 -307h-160z" />
    <glyph glyph-name="gouwuche11" unicode="&#xe688;" 
d="M391.5 76q16.5 0 28 11.5t11.5 28t-11.5 28t-28 11.5t-28 -11.5t-11.5 -28t11.5 -28t28 -11.5zM628.5 76q16.5 0 28 11.5t11.5 28t-11.5 28t-28 11.5t-28 -11.5t-11.5 -28t11.5 -28t28 -11.5zM510 886q-136 0 -251 -67t-182 -182t-67 -251t67 -251t182 -182t251 -67
t251 67t182 182t67 251t-67 251t-182 182t-251 67zM825 562l-58 -249h-20l-435 -35v-5q0 -16 11.5 -27.5t28.5 -11.5h455v-40h-178q33 0 56 -23t23 -56t-23 -56t-56 -23t-56 23t-23 56t23 56t56 23h-238q33 0 56 -23t23 -56t-23 -56t-56 -23t-56 23t-23 56t23 56t56 23h-39
q-33 0 -56.5 23.5t-23.5 55.5v357h-59q-8 0 -14 5.5t-6 14t6 14t14 5.5h119q8 0 14 -5.5t6 -14t-6 -14t-14 -5.5h-20v-40h495q8 0 14 -5.5t6 -14.5q0 -4 -2 -8zM312 315l424 33l51 203h-475v-236z" />
    <glyph glyph-name="lingqian" unicode="&#xe7d4;" 
d="M622 743q96 -54 153.5 -149.5t57.5 -209.5t-57.5 -209.5t-153.5 -148.5q142 9 239.5 112t97.5 246t-97.5 246.5t-239.5 112.5v0zM622 743zM352 503q-10 -9 -9 -20q0 -14 10.5 -22t27.5 -12l4 -1v69q-5 -1 -14 -3q-10 -1 -19 -11v0zM352 503zM481 346q-10 6 -19 8l-6 1
v-73h6t16 4t17 12t5 19q-1 10 -5 16.5t-14 12.5v0zM481 346zM423 744q-97 0 -180 -48.5t-131 -131t-48 -180t48 -180.5t131 -131t180.5 -48t180.5 48t131 131t48 180.5t-48 180t-131 131t-181 48.5v0zM590 313q-1 -29 -16 -52.5t-39 -36.5t-43.5 -17t-31.5 -4h-4v-34
l-71 -17v54q-2 0 -14 1q-10 2 -25 7t-35 17q-19 11 -34.5 32t-19.5 47l-4 25h94q1 -9 3 -18t10 -17t21 -13l4 -1v83q-6 1 -9 2l-10 2l-35 7q-31 6 -47.5 19t-23.5 25.5t-9 26.5q-1 8 -1 23v18q1 27 20.5 50t42.5 33.5t51 15.5l17 2l4 1v53h71v-54q2 -1 10 -2q9 -1 28.5 -6.5
t35.5 -15.5t28.5 -26.5t16.5 -31.5l6 -28h-96q0 6 -2 11q-2 6 -9 12q-6 5 -13 8l-5 1v-80q9 -2 16 -3q13 -2 38 -10t43 -22.5t28 -35.5q9 -20 9 -46v-5v0v0zM590 313z" />
    </font>
</defs>
</svg>
